<svg width="1323" height="992" xmlns="http://www.w3.org/2000/svg" xmlns:xlink="http://www.w3.org/1999/xlink" xml:space="preserve" overflow="hidden"><defs><clipPath id="clip0"><rect x="1123" y="1237" width="1323" height="992"/></clipPath></defs><g clip-path="url(#clip0)" transform="translate(-1123 -1237)"><rect x="1124" y="1238" width="1320" height="989" fill="#FFFFFF"/><g><path d="M1350.5 2094.57 2166.5 2094.57M1350.5 2070.57 2166.5 2070.57M1350.5 2046.57 2166.5 2046.57M1350.5 2022.57 2166.5 2022.57M1350.5 1973.56 2166.5 1973.56M1350.5 1949.56 2166.5 1949.56M1350.5 1925.56 2166.5 1925.56M1350.5 1901.56 2166.5 1901.56M1350.5 1852.56 2166.5 1852.56M1350.5 1828.56 2166.5 1828.56M1350.5 1804.56 2166.5 1804.56M1350.5 1780.56 2166.5 1780.56M1350.5 1731.56 2166.5 1731.56M1350.5 1707.56 2166.5 1707.56M1350.5 1683.56 2166.5 1683.56M1350.5 1659.55 2166.5 1659.55M1350.5 1611.55 2166.5 1611.55M1350.5 1586.55 2166.5 1586.55M1350.5 1562.55 2166.5 1562.55M1350.5 1538.55 2166.5 1538.55M1350.5 1490.55 2166.5 1490.55M1350.5 1466.55 2166.5 1466.55M1350.5 1441.55 2166.5 1441.55M1350.5 1417.55 2166.5 1417.55" stroke="#F2F2F2" stroke-width="3.4375" stroke-linejoin="round" stroke-miterlimit="10" fill="none"/></g><g><path d="M1350.5 1997.57 2166.5 1997.57M1350.5 1877.56 2166.5 1877.56M1350.5 1756.56 2166.5 1756.56M1350.5 1635.55 2166.5 1635.55M1350.5 1514.55 2166.5 1514.55M1350.5 1393.5 2166.5 1393.5" stroke="#D9D9D9" stroke-width="3.4375" stroke-linejoin="round" stroke-miterlimit="10" fill="none"/></g><g><path d="M1350.5 2118.5 2166.5 2118.5" stroke="#D9D9D9" stroke-width="3.4375" stroke-linejoin="round" stroke-miterlimit="10" fill="none" fill-rule="evenodd"/></g><g><path d="M1350.5 2118.5 1350.5 2132.5M1378.55 2118.5 1378.55 2132.5M1405.55 2118.5 1405.55 2132.5M1432.55 2118.5 1432.55 2132.5M1459.55 2118.5 1459.55 2132.5M1486.55 2118.5 1486.55 2132.5M1513.55 2118.5 1513.55 2132.5M1541.55 2118.5 1541.55 2132.5M1568.55 2118.5 1568.55 2132.5M1595.55 2118.5 1595.55 2132.5M1622.55 2118.5 1622.55 2132.5M1649.55 2118.5 1649.55 2132.5M1677.56 2118.5 1677.56 2132.5M1704.56 2118.5 1704.56 2132.5M1731.56 2118.5 1731.56 2132.5M1758.56 2118.5 1758.56 2132.5M1785.56 2118.5 1785.56 2132.5M1812.56 2118.5 1812.56 2132.5M1840.56 2118.5 1840.56 2132.5M1867.56 2118.5 1867.56 2132.5M1894.56 2118.5 1894.56 2132.5M1921.56 2118.5 1921.56 2132.5M1948.56 2118.5 1948.56 2132.5M1975.56 2118.5 1975.56 2132.5M2003.57 2118.5 2003.57 2132.5M2030.57 2118.5 2030.57 2132.5M2057.57 2118.5 2057.57 2132.5M2084.57 2118.5 2084.57 2132.5M2111.57 2118.5 2111.57 2132.5M2138.57 2118.5 2138.57 2132.5M2166.5 2118.5 2166.5 2132.5" stroke="#D9D9D9" stroke-width="3.4375" stroke-linejoin="round" stroke-miterlimit="10" fill="none"/></g><g><path d="M1364.5 1515.55 1391.55 1504.55 1418.55 1551.55 1446.55 1673.56 1473.55 1707.5 1500.55 1493.55 1527.55 1530.55 1554.55 1593.55 1581.55 1578.55 1609.55 1470.55 1636.55 1610.55 1663.55 1538.55 1690.56 1454.55 1717.56 1611.55 1744.56 1626.55 1772.56 1662.55 1799.56 1587.55 1826.56 1569.55 1853.56 1491.55 1880.56 1573.55 1907.56 1639.55 1935.56 1537.55 1962.56 1439.5 1989.57 1555.55 2016.57 1534.55 2043.57 1577.55 2071.57 1558.55 2098.57 1612.55 2125.57 1608.55 2152.5 1620.55" stroke="#ED7D31" stroke-width="9.16667" stroke-linecap="round" stroke-linejoin="round" stroke-miterlimit="10" fill="none"/></g><g><path d="M1384.06 1517C1384.06 1527.22 1375.78 1535.5 1365.56 1535.5 1355.35 1535.5 1347.06 1527.22 1347.06 1517 1347.06 1506.78 1355.35 1498.5 1365.56 1498.5 1375.78 1498.5 1384.06 1506.78 1384.06 1517Z" fill="#ED7D31"/><path d="M1411.06 1505C1411.06 1515.22 1402.78 1523.5 1392.56 1523.5 1382.35 1523.5 1374.06 1515.22 1374.06 1505 1374.06 1494.78 1382.35 1486.5 1392.56 1486.5 1402.78 1486.5 1411.06 1494.78 1411.06 1505Z" fill="#ED7D31"/><path d="M1438.06 1553C1438.06 1563.22 1429.78 1571.5 1419.56 1571.5 1409.35 1571.5 1401.06 1563.22 1401.06 1553 1401.06 1542.78 1409.35 1534.5 1419.56 1534.5 1429.78 1534.5 1438.06 1542.78 1438.06 1553Z" fill="#ED7D31"/><path d="M1465.06 1674C1465.06 1684.22 1456.78 1692.5 1446.56 1692.5 1436.35 1692.5 1428.06 1684.22 1428.06 1674 1428.06 1663.78 1436.35 1655.5 1446.56 1655.5 1456.78 1655.5 1465.06 1663.78 1465.06 1674Z" fill="#ED7D31"/><path d="M1492.06 1708C1492.06 1718.22 1483.78 1726.5 1473.56 1726.5 1463.35 1726.5 1455.06 1718.22 1455.06 1708 1455.06 1697.78 1463.35 1689.5 1473.56 1689.5 1483.78 1689.5 1492.06 1697.78 1492.06 1708Z" fill="#ED7D31"/><path d="M1519.06 1494C1519.06 1504.22 1510.78 1512.5 1500.56 1512.5 1490.35 1512.5 1482.06 1504.22 1482.06 1494 1482.06 1483.78 1490.35 1475.5 1500.56 1475.5 1510.78 1475.5 1519.06 1483.78 1519.06 1494Z" fill="#ED7D31"/><path d="M1547.06 1532C1547.06 1542.22 1538.78 1550.5 1528.56 1550.5 1518.35 1550.5 1510.06 1542.22 1510.06 1532 1510.06 1521.78 1518.35 1513.5 1528.56 1513.5 1538.78 1513.5 1547.06 1521.78 1547.06 1532Z" fill="#ED7D31"/><path d="M1574.06 1595C1574.06 1605.22 1565.78 1613.5 1555.56 1613.5 1545.35 1613.5 1537.06 1605.22 1537.06 1595 1537.06 1584.78 1545.35 1576.5 1555.56 1576.5 1565.78 1576.5 1574.06 1584.78 1574.06 1595Z" fill="#ED7D31"/><path d="M1601.06 1579C1601.06 1589.22 1592.78 1597.5 1582.56 1597.5 1572.35 1597.5 1564.06 1589.22 1564.06 1579 1564.06 1568.78 1572.35 1560.5 1582.56 1560.5 1592.78 1560.5 1601.06 1568.78 1601.06 1579Z" fill="#ED7D31"/><path d="M1628.06 1471C1628.06 1481.22 1619.78 1489.5 1609.56 1489.5 1599.35 1489.5 1591.06 1481.22 1591.06 1471 1591.06 1460.78 1599.35 1452.5 1609.56 1452.5 1619.78 1452.5 1628.06 1460.78 1628.06 1471Z" fill="#ED7D31"/><path d="M1655.06 1611C1655.06 1621.22 1646.78 1629.5 1636.56 1629.5 1626.35 1629.5 1618.06 1621.22 1618.06 1611 1618.06 1600.78 1626.35 1592.5 1636.56 1592.5 1646.78 1592.5 1655.06 1600.78 1655.06 1611Z" fill="#ED7D31"/><path d="M1682.06 1539C1682.06 1549.22 1673.78 1557.5 1663.56 1557.5 1653.35 1557.5 1645.06 1549.22 1645.06 1539 1645.06 1528.78 1653.35 1520.5 1663.56 1520.5 1673.78 1520.5 1682.06 1528.78 1682.06 1539Z" fill="#ED7D31"/><path d="M1710.06 1455C1710.06 1465.22 1701.78 1473.5 1691.56 1473.5 1681.35 1473.5 1673.06 1465.22 1673.06 1455 1673.06 1444.78 1681.35 1436.5 1691.56 1436.5 1701.78 1436.5 1710.06 1444.78 1710.06 1455Z" fill="#ED7D31"/><path d="M1737.06 1613C1737.06 1623.22 1728.78 1631.5 1718.56 1631.5 1708.35 1631.5 1700.06 1623.22 1700.06 1613 1700.06 1602.78 1708.35 1594.5 1718.56 1594.5 1728.78 1594.5 1737.06 1602.78 1737.06 1613Z" fill="#ED7D31"/><path d="M1764.06 1627C1764.06 1637.22 1755.78 1645.5 1745.56 1645.5 1735.35 1645.5 1727.06 1637.22 1727.06 1627 1727.06 1616.78 1735.35 1608.5 1745.56 1608.5 1755.78 1608.5 1764.06 1616.78 1764.06 1627Z" fill="#ED7D31"/><path d="M1791.06 1663C1791.06 1673.22 1782.78 1681.5 1772.56 1681.5 1762.35 1681.5 1754.06 1673.22 1754.06 1663 1754.06 1652.78 1762.35 1644.5 1772.56 1644.5 1782.78 1644.5 1791.06 1652.78 1791.06 1663Z" fill="#ED7D31"/><path d="M1818.06 1589C1818.06 1599.22 1809.78 1607.5 1799.56 1607.5 1789.35 1607.5 1781.06 1599.22 1781.06 1589 1781.06 1578.78 1789.35 1570.5 1799.56 1570.5 1809.78 1570.5 1818.06 1578.78 1818.06 1589Z" fill="#ED7D31"/><path d="M1846.06 1570C1846.06 1580.22 1837.78 1588.5 1827.56 1588.5 1817.35 1588.5 1809.06 1580.22 1809.06 1570 1809.06 1559.78 1817.35 1551.5 1827.56 1551.5 1837.78 1551.5 1846.06 1559.78 1846.06 1570Z" fill="#ED7D31"/><path d="M1873.06 1493C1873.06 1503.22 1864.78 1511.5 1854.56 1511.5 1844.35 1511.5 1836.06 1503.22 1836.06 1493 1836.06 1482.78 1844.35 1474.5 1854.56 1474.5 1864.78 1474.5 1873.06 1482.78 1873.06 1493Z" fill="#ED7D31"/><path d="M1900.06 1574C1900.06 1584.22 1891.78 1592.5 1881.56 1592.5 1871.35 1592.5 1863.06 1584.22 1863.06 1574 1863.06 1563.78 1871.35 1555.5 1881.56 1555.5 1891.78 1555.5 1900.06 1563.78 1900.06 1574Z" fill="#ED7D31"/><path d="M1927.06 1641C1927.06 1651.22 1918.78 1659.5 1908.56 1659.5 1898.35 1659.5 1890.06 1651.22 1890.06 1641 1890.06 1630.78 1898.35 1622.5 1908.56 1622.5 1918.78 1622.5 1927.06 1630.78 1927.06 1641Z" fill="#ED7D31"/><path d="M1954.06 1538C1954.06 1548.22 1945.78 1556.5 1935.56 1556.5 1925.35 1556.5 1917.06 1548.22 1917.06 1538 1917.06 1527.78 1925.35 1519.5 1935.56 1519.5 1945.78 1519.5 1954.06 1527.78 1954.06 1538Z" fill="#ED7D31"/><path d="M1981.06 1441C1981.06 1451.22 1972.78 1459.5 1962.56 1459.5 1952.35 1459.5 1944.06 1451.22 1944.06 1441 1944.06 1430.78 1952.35 1422.5 1962.56 1422.5 1972.78 1422.5 1981.06 1430.78 1981.06 1441Z" fill="#ED7D31"/><path d="M2009.06 1556C2009.06 1566.22 2000.78 1574.5 1990.56 1574.5 1980.35 1574.5 1972.06 1566.22 1972.06 1556 1972.06 1545.78 1980.35 1537.5 1990.56 1537.5 2000.78 1537.5 2009.06 1545.78 2009.06 1556Z" fill="#ED7D31"/><path d="M2036.06 1536C2036.06 1546.22 2027.78 1554.5 2017.56 1554.5 2007.35 1554.5 1999.06 1546.22 1999.06 1536 1999.06 1525.78 2007.35 1517.5 2017.56 1517.5 2027.78 1517.5 2036.06 1525.78 2036.06 1536Z" fill="#ED7D31"/><path d="M2063.06 1579C2063.06 1589.22 2054.78 1597.5 2044.56 1597.5 2034.35 1597.5 2026.06 1589.22 2026.06 1579 2026.06 1568.78 2034.35 1560.5 2044.56 1560.5 2054.78 1560.5 2063.06 1568.78 2063.06 1579Z" fill="#ED7D31"/><path d="M2090.06 1559C2090.06 1569.22 2081.78 1577.5 2071.56 1577.5 2061.35 1577.5 2053.06 1569.22 2053.06 1559 2053.06 1548.78 2061.35 1540.5 2071.56 1540.5 2081.78 1540.5 2090.06 1548.78 2090.06 1559Z" fill="#ED7D31"/><path d="M2117.06 1613C2117.06 1623.22 2108.78 1631.5 2098.56 1631.5 2088.35 1631.5 2080.06 1623.22 2080.06 1613 2080.06 1602.78 2088.35 1594.5 2098.56 1594.5 2108.78 1594.5 2117.06 1602.78 2117.06 1613Z" fill="#ED7D31"/><path d="M2144.06 1610C2144.06 1620.22 2135.78 1628.5 2125.56 1628.5 2115.35 1628.5 2107.06 1620.22 2107.06 1610 2107.06 1599.78 2115.35 1591.5 2125.56 1591.5 2135.78 1591.5 2144.06 1599.78 2144.06 1610Z" fill="#ED7D31"/><path d="M2172.06 1621C2172.06 1631.22 2163.78 1639.5 2153.56 1639.5 2143.35 1639.5 2135.06 1631.22 2135.06 1621 2135.06 1610.78 2143.35 1602.5 2153.56 1602.5 2163.78 1602.5 2172.06 1610.78 2172.06 1621Z" fill="#ED7D31"/></g><g><path d="M1364.5 1599.55 1391.55 1604.55 1418.55 1563.55 1446.55 1501.55 1473.55 1515.55 1500.55 1628.55 1527.55 1594.55 1554.55 1536.55 1581.55 1547.55 1609.55 1637.55 1636.55 1554.55 1663.55 1611.55 1690.56 1632.55 1717.56 1543.55 1744.56 1555.55 1772.56 1492.5 1799.56 1610.55 1826.56 1583.55 1853.56 1623.55 1880.56 1546.55 1907.56 1525.55 1935.56 1575.55 1962.56 1885.5 1989.57 1623.55 2016.57 1598.55 2043.57 1562.55 2071.57 1561.55 2098.57 1587.55 2125.57 1576.55 2152.5 1545.55" stroke="#A5A5A5" stroke-width="9.16667" stroke-linecap="round" stroke-linejoin="round" stroke-miterlimit="10" fill="none"/></g><g><path d="M1384.06 1601C1384.06 1611.22 1375.78 1619.5 1365.56 1619.5 1355.35 1619.5 1347.06 1611.22 1347.06 1601 1347.06 1590.78 1355.35 1582.5 1365.56 1582.5 1375.78 1582.5 1384.06 1590.78 1384.06 1601Z" fill="#A5A5A5"/><path d="M1411.06 1605C1411.06 1615.22 1402.78 1623.5 1392.56 1623.5 1382.35 1623.5 1374.06 1615.22 1374.06 1605 1374.06 1594.78 1382.35 1586.5 1392.56 1586.5 1402.78 1586.5 1411.06 1594.78 1411.06 1605Z" fill="#A5A5A5"/><path d="M1438.06 1565C1438.06 1575.22 1429.78 1583.5 1419.56 1583.5 1409.35 1583.5 1401.06 1575.22 1401.06 1565 1401.06 1554.78 1409.35 1546.5 1419.56 1546.5 1429.78 1546.5 1438.06 1554.78 1438.06 1565Z" fill="#A5A5A5"/><path d="M1465.06 1502C1465.06 1512.22 1456.78 1520.5 1446.56 1520.5 1436.35 1520.5 1428.06 1512.22 1428.06 1502 1428.06 1491.78 1436.35 1483.5 1446.56 1483.5 1456.78 1483.5 1465.06 1491.78 1465.06 1502Z" fill="#A5A5A5"/><path d="M1492.06 1517C1492.06 1527.22 1483.78 1535.5 1473.56 1535.5 1463.35 1535.5 1455.06 1527.22 1455.06 1517 1455.06 1506.78 1463.35 1498.5 1473.56 1498.5 1483.78 1498.5 1492.06 1506.78 1492.06 1517Z" fill="#A5A5A5"/><path d="M1519.06 1630C1519.06 1640.22 1510.78 1648.5 1500.56 1648.5 1490.35 1648.5 1482.06 1640.22 1482.06 1630 1482.06 1619.78 1490.35 1611.5 1500.56 1611.5 1510.78 1611.5 1519.06 1619.78 1519.06 1630Z" fill="#A5A5A5"/><path d="M1547.06 1596C1547.06 1606.22 1538.78 1614.5 1528.56 1614.5 1518.35 1614.5 1510.06 1606.22 1510.06 1596 1510.06 1585.78 1518.35 1577.5 1528.56 1577.5 1538.78 1577.5 1547.06 1585.78 1547.06 1596Z" fill="#A5A5A5"/><path d="M1574.06 1538C1574.06 1548.22 1565.78 1556.5 1555.56 1556.5 1545.35 1556.5 1537.06 1548.22 1537.06 1538 1537.06 1527.78 1545.35 1519.5 1555.56 1519.5 1565.78 1519.5 1574.06 1527.78 1574.06 1538Z" fill="#A5A5A5"/><path d="M1601.06 1548C1601.06 1558.22 1592.78 1566.5 1582.56 1566.5 1572.35 1566.5 1564.06 1558.22 1564.06 1548 1564.06 1537.78 1572.35 1529.5 1582.56 1529.5 1592.78 1529.5 1601.06 1537.78 1601.06 1548Z" fill="#A5A5A5"/><path d="M1628.06 1639C1628.06 1649.22 1619.78 1657.5 1609.56 1657.5 1599.35 1657.5 1591.06 1649.22 1591.06 1639 1591.06 1628.78 1599.35 1620.5 1609.56 1620.5 1619.78 1620.5 1628.06 1628.78 1628.06 1639Z" fill="#A5A5A5"/><path d="M1655.06 1556C1655.06 1566.22 1646.78 1574.5 1636.56 1574.5 1626.35 1574.5 1618.06 1566.22 1618.06 1556 1618.06 1545.78 1626.35 1537.5 1636.56 1537.5 1646.78 1537.5 1655.06 1545.78 1655.06 1556Z" fill="#A5A5A5"/><path d="M1682.06 1613C1682.06 1623.22 1673.78 1631.5 1663.56 1631.5 1653.35 1631.5 1645.06 1623.22 1645.06 1613 1645.06 1602.78 1653.35 1594.5 1663.56 1594.5 1673.78 1594.5 1682.06 1602.78 1682.06 1613Z" fill="#A5A5A5"/><path d="M1710.06 1633C1710.06 1643.22 1701.78 1651.5 1691.56 1651.5 1681.35 1651.5 1673.06 1643.22 1673.06 1633 1673.06 1622.78 1681.35 1614.5 1691.56 1614.5 1701.78 1614.5 1710.06 1622.78 1710.06 1633Z" fill="#A5A5A5"/><path d="M1737.06 1545C1737.06 1555.22 1728.78 1563.5 1718.56 1563.5 1708.35 1563.5 1700.06 1555.22 1700.06 1545 1700.06 1534.78 1708.35 1526.5 1718.56 1526.5 1728.78 1526.5 1737.06 1534.78 1737.06 1545Z" fill="#A5A5A5"/><path d="M1764.06 1556C1764.06 1566.22 1755.78 1574.5 1745.56 1574.5 1735.35 1574.5 1727.06 1566.22 1727.06 1556 1727.06 1545.78 1735.35 1537.5 1745.56 1537.5 1755.78 1537.5 1764.06 1545.78 1764.06 1556Z" fill="#A5A5A5"/><path d="M1791.06 1494C1791.06 1504.22 1782.78 1512.5 1772.56 1512.5 1762.35 1512.5 1754.06 1504.22 1754.06 1494 1754.06 1483.78 1762.35 1475.5 1772.56 1475.5 1782.78 1475.5 1791.06 1483.78 1791.06 1494Z" fill="#A5A5A5"/><path d="M1818.06 1612C1818.06 1622.22 1809.78 1630.5 1799.56 1630.5 1789.35 1630.5 1781.06 1622.22 1781.06 1612 1781.06 1601.78 1789.35 1593.5 1799.56 1593.5 1809.78 1593.5 1818.06 1601.78 1818.06 1612Z" fill="#A5A5A5"/><path d="M1846.06 1584C1846.06 1594.22 1837.78 1602.5 1827.56 1602.5 1817.35 1602.5 1809.06 1594.22 1809.06 1584 1809.06 1573.78 1817.35 1565.5 1827.56 1565.5 1837.78 1565.5 1846.06 1573.78 1846.06 1584Z" fill="#A5A5A5"/><path d="M1873.06 1624C1873.06 1634.22 1864.78 1642.5 1854.56 1642.5 1844.35 1642.5 1836.06 1634.22 1836.06 1624 1836.06 1613.78 1844.35 1605.5 1854.56 1605.5 1864.78 1605.5 1873.06 1613.78 1873.06 1624Z" fill="#A5A5A5"/><path d="M1900.06 1548C1900.06 1558.22 1891.78 1566.5 1881.56 1566.5 1871.35 1566.5 1863.06 1558.22 1863.06 1548 1863.06 1537.78 1871.35 1529.5 1881.56 1529.5 1891.78 1529.5 1900.06 1537.78 1900.06 1548Z" fill="#A5A5A5"/><path d="M1927.06 1526C1927.06 1536.22 1918.78 1544.5 1908.56 1544.5 1898.35 1544.5 1890.06 1536.22 1890.06 1526 1890.06 1515.78 1898.35 1507.5 1908.56 1507.5 1918.78 1507.5 1927.06 1515.78 1927.06 1526Z" fill="#A5A5A5"/><path d="M1954.06 1576C1954.06 1586.22 1945.78 1594.5 1935.56 1594.5 1925.35 1594.5 1917.06 1586.22 1917.06 1576 1917.06 1565.78 1925.35 1557.5 1935.56 1557.5 1945.78 1557.5 1954.06 1565.78 1954.06 1576Z" fill="#A5A5A5"/><path d="M1981.06 1886C1981.06 1896.22 1972.78 1904.5 1962.56 1904.5 1952.35 1904.5 1944.06 1896.22 1944.06 1886 1944.06 1875.78 1952.35 1867.5 1962.56 1867.5 1972.78 1867.5 1981.06 1875.78 1981.06 1886Z" fill="#A5A5A5"/><path d="M2009.06 1624C2009.06 1634.22 2000.78 1642.5 1990.56 1642.5 1980.35 1642.5 1972.06 1634.22 1972.06 1624 1972.06 1613.78 1980.35 1605.5 1990.56 1605.5 2000.78 1605.5 2009.06 1613.78 2009.06 1624Z" fill="#A5A5A5"/><path d="M2036.06 1599C2036.06 1609.22 2027.78 1617.5 2017.56 1617.5 2007.35 1617.5 1999.06 1609.22 1999.06 1599 1999.06 1588.78 2007.35 1580.5 2017.56 1580.5 2027.78 1580.5 2036.06 1588.78 2036.06 1599Z" fill="#A5A5A5"/><path d="M2063.06 1563C2063.06 1573.22 2054.78 1581.5 2044.56 1581.5 2034.35 1581.5 2026.06 1573.22 2026.06 1563 2026.06 1552.78 2034.35 1544.5 2044.56 1544.5 2054.78 1544.5 2063.06 1552.78 2063.06 1563Z" fill="#A5A5A5"/><path d="M2090.06 1563C2090.06 1573.22 2081.78 1581.5 2071.56 1581.5 2061.35 1581.5 2053.06 1573.22 2053.06 1563 2053.06 1552.78 2061.35 1544.5 2071.56 1544.5 2081.78 1544.5 2090.06 1552.78 2090.06 1563Z" fill="#A5A5A5"/><path d="M2117.06 1589C2117.06 1599.22 2108.78 1607.5 2098.56 1607.5 2088.35 1607.5 2080.06 1599.22 2080.06 1589 2080.06 1578.78 2088.35 1570.5 2098.56 1570.5 2108.78 1570.5 2117.06 1578.78 2117.06 1589Z" fill="#A5A5A5"/><path d="M2144.06 1577C2144.06 1587.22 2135.78 1595.5 2125.56 1595.5 2115.35 1595.5 2107.06 1587.22 2107.06 1577 2107.06 1566.78 2115.35 1558.5 2125.56 1558.5 2135.78 1558.5 2144.06 1566.78 2144.06 1577Z" fill="#A5A5A5"/><path d="M2172.06 1546C2172.06 1556.22 2163.78 1564.5 2153.56 1564.5 2143.35 1564.5 2135.06 1556.22 2135.06 1546 2135.06 1535.78 2143.35 1527.5 2153.56 1527.5 2163.78 1527.5 2172.06 1535.78 2172.06 1546Z" fill="#A5A5A5"/></g><g><text font-family="Arial,Arial_MSFontService,sans-serif" font-weight="400" font-size="46" transform="matrix(1 0 0 1 2205.64 2134)">0.98</text></g><g><text font-family="Arial,Arial_MSFontService,sans-serif" font-weight="400" font-size="46" transform="matrix(1 0 0 1 2205.64 2061)">0.982</text></g><g><text font-family="Arial,Arial_MSFontService,sans-serif" font-weight="400" font-size="46" transform="matrix(1 0 0 1 2205.64 1989)">0.984</text></g><g><text font-family="Arial,Arial_MSFontService,sans-serif" font-weight="400" font-size="46" transform="matrix(1 0 0 1 2205.64 1916)">0.986</text></g><g><text font-family="Arial,Arial_MSFontService,sans-serif" font-weight="400" font-size="46" transform="matrix(1 0 0 1 2205.64 1844)">0.988</text></g><g><text font-family="Arial,Arial_MSFontService,sans-serif" font-weight="400" font-size="46" transform="matrix(1 0 0 1 2205.64 1771)">0.99</text></g><g><text font-family="Arial,Arial_MSFontService,sans-serif" font-weight="400" font-size="46" transform="matrix(1 0 0 1 2205.64 1699)">0.992</text></g><g><text font-family="Arial,Arial_MSFontService,sans-serif" font-weight="400" font-size="46" transform="matrix(1 0 0 1 2205.64 1626)">0.994</text></g><g><text font-family="Arial,Arial_MSFontService,sans-serif" font-weight="400" font-size="46" transform="matrix(1 0 0 1 2205.64 1554)">0.996</text></g><g><text font-family="Arial,Arial_MSFontService,sans-serif" font-weight="400" font-size="46" transform="matrix(1 0 0 1 2205.64 1481)">0.998</text></g><g><text font-family="Arial,Arial_MSFontService,sans-serif" font-weight="400" font-size="46" transform="matrix(1 0 0 1 2205.64 1409)">1</text></g><g><text font-family="Arial,Arial_MSFontService,sans-serif" font-weight="400" font-size="46" transform="matrix(1 0 0 1 1286.04 2134)">0</text></g><g><text font-family="Arial,Arial_MSFontService,sans-serif" font-weight="400" font-size="46" transform="matrix(1 0 0 1 1247.81 2013)">0.1</text></g><g><text font-family="Arial,Arial_MSFontService,sans-serif" font-weight="400" font-size="46" transform="matrix(1 0 0 1 1247.81 1892)">0.2</text></g><g><text font-family="Arial,Arial_MSFontService,sans-serif" font-weight="400" font-size="46" transform="matrix(1 0 0 1 1247.81 1771)">0.3</text></g><g><text font-family="Arial,Arial_MSFontService,sans-serif" font-weight="400" font-size="46" transform="matrix(1 0 0 1 1247.81 1650)">0.4</text></g><g><text font-family="Arial,Arial_MSFontService,sans-serif" font-weight="400" font-size="46" transform="matrix(1 0 0 1 1247.81 1530)">0.5</text></g><g><text font-family="Arial,Arial_MSFontService,sans-serif" font-weight="400" font-size="46" transform="matrix(1 0 0 1 1247.81 1409)">0.6</text></g><g><text font-family="Arial,Arial_MSFontService,sans-serif" font-weight="400" font-size="46" transform="matrix(1 0 0 1 1351.81 2188)">1</text></g><g><text font-family="Arial,Arial_MSFontService,sans-serif" font-weight="400" font-size="46" transform="matrix(1 0 0 1 1433.33 2188)">4</text></g><g><text font-family="Arial,Arial_MSFontService,sans-serif" font-weight="400" font-size="46" transform="matrix(1 0 0 1 1514.86 2188)">7</text></g><g><text font-family="Arial,Arial_MSFontService,sans-serif" font-weight="400" font-size="46" transform="matrix(1 0 0 1 1583.64 2188)">10</text></g><g><text font-family="Arial,Arial_MSFontService,sans-serif" font-weight="400" font-size="46" transform="matrix(1 0 0 1 1665.16 2188)">13</text></g><g><text font-family="Arial,Arial_MSFontService,sans-serif" font-weight="400" font-size="46" transform="matrix(1 0 0 1 1746.68 2188)">16</text></g><g><text font-family="Arial,Arial_MSFontService,sans-serif" font-weight="400" font-size="46" transform="matrix(1 0 0 1 1828.21 2188)">19</text></g><g><text font-family="Arial,Arial_MSFontService,sans-serif" font-weight="400" font-size="46" transform="matrix(1 0 0 1 1909.73 2188)">22</text></g><g><text font-family="Arial,Arial_MSFontService,sans-serif" font-weight="400" font-size="46" transform="matrix(1 0 0 1 1991.25 2188)">25</text></g><g><text font-family="Arial,Arial_MSFontService,sans-serif" font-weight="400" font-size="46" transform="matrix(1 0 0 1 2072.77 2188)">28</text></g><g><text font-family="Arial,Arial_MSFontService,sans-serif" font-weight="400" font-size="46" transform="matrix(6.12323e-17 -1 1 6.12323e-17 2377.05 1894)">R</text></g><g><text font-family="Arial,Arial_MSFontService,sans-serif" font-weight="400" font-size="46" transform="matrix(6.12323e-17 -1 1 6.12323e-17 2377.05 1861)">-</text></g><g><text font-family="Arial,Arial_MSFontService,sans-serif" font-weight="400" font-size="46" transform="matrix(6.12323e-17 -1 1 6.12323e-17 2377.05 1845)">SQUARED</text></g><g><text font-family="Arial,Arial_MSFontService,sans-serif" font-weight="400" font-size="46" transform="matrix(6.12323e-17 -1 1 6.12323e-17 1224.35 1864)">MAE (KW)</text></g><g><path d="M1507.5 1304.5 1595.5 1304.5" stroke="#ED7D31" stroke-width="9.16667" stroke-linecap="round" stroke-linejoin="round" stroke-miterlimit="10" fill="none" fill-rule="evenodd"/></g><g><path d="M1564 1303.5C1564 1310.96 1557.96 1317 1550.5 1317 1543.04 1317 1537 1310.96 1537 1303.5 1537 1296.04 1543.04 1290 1550.5 1290 1557.96 1290 1564 1296.04 1564 1303.5Z" fill="#ED7D31"/></g><g><text font-family="Arial,Arial_MSFontService,sans-serif" font-weight="400" font-size="46" transform="matrix(1 0 0 1 1604.57 1319)">MAE_CL</text></g><g><path d="M1837.5 1304.5 1925.5 1304.5" stroke="#A5A5A5" stroke-width="9.16667" stroke-linecap="round" stroke-linejoin="round" stroke-miterlimit="10" fill="none" fill-rule="evenodd"/></g><g><path d="M1894 1303.5C1894 1310.96 1887.96 1317 1880.5 1317 1873.04 1317 1867 1310.96 1867 1303.5 1867 1296.04 1873.04 1290 1880.5 1290 1887.96 1290 1894 1296.04 1894 1303.5Z" fill="#A5A5A5"/></g><g><text font-family="Arial,Arial_MSFontService,sans-serif" font-weight="400" font-size="46" transform="matrix(1 0 0 1 1934.35 1319)">R2_CL</text></g><rect x="1124.5" y="1238.5" width="1320" height="989" stroke="#D9D9D9" stroke-width="3.4375" stroke-linejoin="round" stroke-miterlimit="10" fill="none"/></g></svg>