<svg width="1323" height="992" xmlns="http://www.w3.org/2000/svg" xmlns:xlink="http://www.w3.org/1999/xlink" xml:space="preserve" overflow="hidden"><defs><clipPath id="clip0"><rect x="1123" y="1237" width="1323" height="992"/></clipPath></defs><g clip-path="url(#clip0)" transform="translate(-1123 -1237)"><rect x="1124" y="1238" width="1320" height="989" fill="#FFFFFF"/><g><path d="M1350.5 2094.57 2217.5 2094.57M1350.5 2070.57 2217.5 2070.57M1350.5 2046.57 2217.5 2046.57M1350.5 2022.57 2217.5 2022.57M1350.5 1973.56 2217.5 1973.56M1350.5 1949.56 2217.5 1949.56M1350.5 1925.56 2217.5 1925.56M1350.5 1901.56 2217.5 1901.56M1350.5 1852.56 2217.5 1852.56M1350.5 1828.56 2217.5 1828.56M1350.5 1804.56 2217.5 1804.56M1350.5 1780.56 2217.5 1780.56M1350.5 1731.56 2217.5 1731.56M1350.5 1707.56 2217.5 1707.56M1350.5 1683.56 2217.5 1683.56M1350.5 1659.55 2217.5 1659.55M1350.5 1611.55 2217.5 1611.55M1350.5 1586.55 2217.5 1586.55M1350.5 1562.55 2217.5 1562.55M1350.5 1538.55 2217.5 1538.55M1350.5 1490.55 2217.5 1490.55M1350.5 1466.55 2217.5 1466.55M1350.5 1441.55 2217.5 1441.55M1350.5 1417.55 2217.5 1417.55" stroke="#F2F2F2" stroke-width="3.4375" stroke-linejoin="round" stroke-miterlimit="10" fill="none"/></g><g><path d="M1350.5 1997.57 2217.5 1997.57M1350.5 1877.56 2217.5 1877.56M1350.5 1756.56 2217.5 1756.56M1350.5 1635.55 2217.5 1635.55M1350.5 1514.55 2217.5 1514.55M1350.5 1393.5 2217.5 1393.5" stroke="#D9D9D9" stroke-width="3.4375" stroke-linejoin="round" stroke-miterlimit="10" fill="none"/></g><g><path d="M1350.5 2118.5 2217.5 2118.5" stroke="#D9D9D9" stroke-width="3.4375" stroke-linejoin="round" stroke-miterlimit="10" fill="none" fill-rule="evenodd"/></g><g><path d="M1350.5 2118.5 1350.5 2132.5M1379.55 2118.5 1379.55 2132.5M1408.55 2118.5 1408.55 2132.5M1437.55 2118.5 1437.55 2132.5M1466.55 2118.5 1466.55 2132.5M1495.55 2118.5 1495.55 2132.5M1524.55 2118.5 1524.55 2132.5M1553.55 2118.5 1553.55 2132.5M1581.55 2118.5 1581.55 2132.5M1610.55 2118.5 1610.55 2132.5M1639.55 2118.5 1639.55 2132.5M1668.55 2118.5 1668.55 2132.5M1697.56 2118.5 1697.56 2132.5M1726.56 2118.5 1726.56 2132.5M1755.56 2118.5 1755.56 2132.5M1784.56 2118.5 1784.56 2132.5M1812.56 2118.5 1812.56 2132.5M1841.56 2118.5 1841.56 2132.5M1870.56 2118.5 1870.56 2132.5M1899.56 2118.5 1899.56 2132.5M1928.56 2118.5 1928.56 2132.5M1957.56 2118.5 1957.56 2132.5M1986.57 2118.5 1986.57 2132.5M2014.57 2118.5 2014.57 2132.5M2043.57 2118.5 2043.57 2132.5M2072.57 2118.5 2072.57 2132.5M2101.57 2118.5 2101.57 2132.5M2130.57 2118.5 2130.57 2132.5M2159.57 2118.5 2159.57 2132.5M2188.57 2118.5 2188.57 2132.5M2217.5 2118.5 2217.5 2132.5" stroke="#D9D9D9" stroke-width="3.4375" stroke-linejoin="round" stroke-miterlimit="10" fill="none"/></g><g><path d="M1365 1677.06 1394.05 1675.05 1423.05 1732.06 1452.05 1801 1481.05 1798.06 1510.05 1664.05 1539.05 1698.06 1567.05 1756.06 1596.05 1732.06 1625.05 1646.05 1654.05 1742.06 1683.06 1662.05 1712.06 1638.05 1741.06 1766.06 1770.06 1752.06 1798.06 1801.06 1827.06 1696.06 1856.06 1712.06 1885.06 1660.05 1914.06 1728.06 1943.06 1778.06 1972.06 1715.06 2001.07 1473 2029.07 1666.05 2058.07 1684.06 2087.07 1717.06 2116.07 1736.06 2145.07 1720.06 2174.07 1734.06 2203 1765.06" stroke="#ED7D31" stroke-width="13.75" stroke-linecap="round" stroke-linejoin="round" stroke-miterlimit="10" fill="none"/></g><g><path d="M1384.06 1678C1384.06 1688.22 1375.78 1696.5 1365.56 1696.5 1355.35 1696.5 1347.06 1688.22 1347.06 1678 1347.06 1667.78 1355.35 1659.5 1365.56 1659.5 1375.78 1659.5 1384.06 1667.78 1384.06 1678Z" fill="#ED7D31"/><path d="M1413.06 1676C1413.06 1686.22 1404.78 1694.5 1394.56 1694.5 1384.35 1694.5 1376.06 1686.22 1376.06 1676 1376.06 1665.78 1384.35 1657.5 1394.56 1657.5 1404.78 1657.5 1413.06 1665.78 1413.06 1676Z" fill="#ED7D31"/><path d="M1442.06 1733C1442.06 1743.22 1433.78 1751.5 1423.56 1751.5 1413.35 1751.5 1405.06 1743.22 1405.06 1733 1405.06 1722.78 1413.35 1714.5 1423.56 1714.5 1433.78 1714.5 1442.06 1722.78 1442.06 1733Z" fill="#ED7D31"/><path d="M1471.06 1802C1471.06 1812.22 1462.78 1820.5 1452.56 1820.5 1442.35 1820.5 1434.06 1812.22 1434.06 1802 1434.06 1791.78 1442.35 1783.5 1452.56 1783.5 1462.78 1783.5 1471.06 1791.78 1471.06 1802Z" fill="#ED7D31"/><path d="M1500.06 1799C1500.06 1809.22 1491.78 1817.5 1481.56 1817.5 1471.35 1817.5 1463.06 1809.22 1463.06 1799 1463.06 1788.78 1471.35 1780.5 1481.56 1780.5 1491.78 1780.5 1500.06 1788.78 1500.06 1799Z" fill="#ED7D31"/><path d="M1529.06 1666C1529.06 1676.22 1520.78 1684.5 1510.56 1684.5 1500.35 1684.5 1492.06 1676.22 1492.06 1666 1492.06 1655.78 1500.35 1647.5 1510.56 1647.5 1520.78 1647.5 1529.06 1655.78 1529.06 1666Z" fill="#ED7D31"/><path d="M1558.06 1699C1558.06 1709.22 1549.78 1717.5 1539.56 1717.5 1529.35 1717.5 1521.06 1709.22 1521.06 1699 1521.06 1688.78 1529.35 1680.5 1539.56 1680.5 1549.78 1680.5 1558.06 1688.78 1558.06 1699Z" fill="#ED7D31"/><path d="M1587.06 1757C1587.06 1767.22 1578.78 1775.5 1568.56 1775.5 1558.35 1775.5 1550.06 1767.22 1550.06 1757 1550.06 1746.78 1558.35 1738.5 1568.56 1738.5 1578.78 1738.5 1587.06 1746.78 1587.06 1757Z" fill="#ED7D31"/><path d="M1615.06 1733C1615.06 1743.22 1606.78 1751.5 1596.56 1751.5 1586.35 1751.5 1578.06 1743.22 1578.06 1733 1578.06 1722.78 1586.35 1714.5 1596.56 1714.5 1606.78 1714.5 1615.06 1722.78 1615.06 1733Z" fill="#ED7D31"/><path d="M1644.06 1647C1644.06 1657.22 1635.78 1665.5 1625.56 1665.5 1615.35 1665.5 1607.06 1657.22 1607.06 1647 1607.06 1636.78 1615.35 1628.5 1625.56 1628.5 1635.78 1628.5 1644.06 1636.78 1644.06 1647Z" fill="#ED7D31"/><path d="M1673.06 1743C1673.06 1753.22 1664.78 1761.5 1654.56 1761.5 1644.35 1761.5 1636.06 1753.22 1636.06 1743 1636.06 1732.78 1644.35 1724.5 1654.56 1724.5 1664.78 1724.5 1673.06 1732.78 1673.06 1743Z" fill="#ED7D31"/><path d="M1702.06 1663C1702.06 1673.22 1693.78 1681.5 1683.56 1681.5 1673.35 1681.5 1665.06 1673.22 1665.06 1663 1665.06 1652.78 1673.35 1644.5 1683.56 1644.5 1693.78 1644.5 1702.06 1652.78 1702.06 1663Z" fill="#ED7D31"/><path d="M1731.06 1639C1731.06 1649.22 1722.78 1657.5 1712.56 1657.5 1702.35 1657.5 1694.06 1649.22 1694.06 1639 1694.06 1628.78 1702.35 1620.5 1712.56 1620.5 1722.78 1620.5 1731.06 1628.78 1731.06 1639Z" fill="#ED7D31"/><path d="M1760.06 1767C1760.06 1777.22 1751.78 1785.5 1741.56 1785.5 1731.35 1785.5 1723.06 1777.22 1723.06 1767 1723.06 1756.78 1731.35 1748.5 1741.56 1748.5 1751.78 1748.5 1760.06 1756.78 1760.06 1767Z" fill="#ED7D31"/><path d="M1789.06 1753C1789.06 1763.22 1780.78 1771.5 1770.56 1771.5 1760.35 1771.5 1752.06 1763.22 1752.06 1753 1752.06 1742.78 1760.35 1734.5 1770.56 1734.5 1780.78 1734.5 1789.06 1742.78 1789.06 1753Z" fill="#ED7D31"/><path d="M1817.06 1802C1817.06 1812.22 1808.78 1820.5 1798.56 1820.5 1788.35 1820.5 1780.06 1812.22 1780.06 1802 1780.06 1791.78 1788.35 1783.5 1798.56 1783.5 1808.78 1783.5 1817.06 1791.78 1817.06 1802Z" fill="#ED7D31"/><path d="M1846.06 1697C1846.06 1707.22 1837.78 1715.5 1827.56 1715.5 1817.35 1715.5 1809.06 1707.22 1809.06 1697 1809.06 1686.78 1817.35 1678.5 1827.56 1678.5 1837.78 1678.5 1846.06 1686.78 1846.06 1697Z" fill="#ED7D31"/><path d="M1875.06 1713C1875.06 1723.22 1866.78 1731.5 1856.56 1731.5 1846.35 1731.5 1838.06 1723.22 1838.06 1713 1838.06 1702.78 1846.35 1694.5 1856.56 1694.5 1866.78 1694.5 1875.06 1702.78 1875.06 1713Z" fill="#ED7D31"/><path d="M1904.06 1661C1904.06 1671.22 1895.78 1679.5 1885.56 1679.5 1875.35 1679.5 1867.06 1671.22 1867.06 1661 1867.06 1650.78 1875.35 1642.5 1885.56 1642.5 1895.78 1642.5 1904.06 1650.78 1904.06 1661Z" fill="#ED7D31"/><path d="M1933.06 1729C1933.06 1739.22 1924.78 1747.5 1914.56 1747.5 1904.35 1747.5 1896.06 1739.22 1896.06 1729 1896.06 1718.78 1904.35 1710.5 1914.56 1710.5 1924.78 1710.5 1933.06 1718.78 1933.06 1729Z" fill="#ED7D31"/><path d="M1962.06 1779C1962.06 1789.22 1953.78 1797.5 1943.56 1797.5 1933.35 1797.5 1925.06 1789.22 1925.06 1779 1925.06 1768.78 1933.35 1760.5 1943.56 1760.5 1953.78 1760.5 1962.06 1768.78 1962.06 1779Z" fill="#ED7D31"/><path d="M1991.06 1716C1991.06 1726.22 1982.78 1734.5 1972.56 1734.5 1962.35 1734.5 1954.06 1726.22 1954.06 1716 1954.06 1705.78 1962.35 1697.5 1972.56 1697.5 1982.78 1697.5 1991.06 1705.78 1991.06 1716Z" fill="#ED7D31"/><path d="M2020.06 1474C2020.06 1484.22 2011.78 1492.5 2001.56 1492.5 1991.35 1492.5 1983.06 1484.22 1983.06 1474 1983.06 1463.78 1991.35 1455.5 2001.56 1455.5 2011.78 1455.5 2020.06 1463.78 2020.06 1474Z" fill="#ED7D31"/><path d="M2048.06 1667C2048.06 1677.22 2039.78 1685.5 2029.56 1685.5 2019.35 1685.5 2011.06 1677.22 2011.06 1667 2011.06 1656.78 2019.35 1648.5 2029.56 1648.5 2039.78 1648.5 2048.06 1656.78 2048.06 1667Z" fill="#ED7D31"/><path d="M2077.06 1686C2077.06 1696.22 2068.78 1704.5 2058.56 1704.5 2048.35 1704.5 2040.06 1696.22 2040.06 1686 2040.06 1675.78 2048.35 1667.5 2058.56 1667.5 2068.78 1667.5 2077.06 1675.78 2077.06 1686Z" fill="#ED7D31"/><path d="M2106.06 1718C2106.06 1728.22 2097.78 1736.5 2087.56 1736.5 2077.35 1736.5 2069.06 1728.22 2069.06 1718 2069.06 1707.78 2077.35 1699.5 2087.56 1699.5 2097.78 1699.5 2106.06 1707.78 2106.06 1718Z" fill="#ED7D31"/><path d="M2135.06 1737C2135.06 1747.22 2126.78 1755.5 2116.56 1755.5 2106.35 1755.5 2098.06 1747.22 2098.06 1737 2098.06 1726.78 2106.35 1718.5 2116.56 1718.5 2126.78 1718.5 2135.06 1726.78 2135.06 1737Z" fill="#ED7D31"/><path d="M2164.06 1721C2164.06 1731.22 2155.78 1739.5 2145.56 1739.5 2135.35 1739.5 2127.06 1731.22 2127.06 1721 2127.06 1710.78 2135.35 1702.5 2145.56 1702.5 2155.78 1702.5 2164.06 1710.78 2164.06 1721Z" fill="#ED7D31"/><path d="M2193.06 1735C2193.06 1745.22 2184.78 1753.5 2174.56 1753.5 2164.35 1753.5 2156.06 1745.22 2156.06 1735 2156.06 1724.78 2164.35 1716.5 2174.56 1716.5 2184.78 1716.5 2193.06 1724.78 2193.06 1735Z" fill="#ED7D31"/><path d="M2222.06 1766C2222.06 1776.22 2213.78 1784.5 2203.56 1784.5 2193.35 1784.5 2185.06 1776.22 2185.06 1766 2185.06 1755.78 2193.35 1747.5 2203.56 1747.5 2213.78 1747.5 2222.06 1755.78 2222.06 1766Z" fill="#ED7D31"/></g><g><path d="M1365 1571.05 1394.05 1572.05 1423.05 1565.05 1452.05 1689.06 1481.05 1719 1510.05 1532.05 1539.05 1585.05 1567.05 1622.05 1596.05 1624.05 1625.05 1491 1654.05 1612.05 1683.06 1576.05 1712.06 1509.05 1741.06 1620.05 1770.06 1628.05 1798.06 1693.06 1827.06 1600.05 1856.06 1618.05 1885.06 1511.05 1914.06 1605.05 1943.06 1645.05 1972.06 1569.05 2001.07 1501.05 2029.07 1585.05 2058.07 1595.05 2087.07 1634.05 2116.07 1571.05 2145.07 1634.05 2174.07 1603.05 2203 1624.05" stroke="#A5A5A5" stroke-width="13.75" stroke-linecap="round" stroke-linejoin="round" stroke-miterlimit="10" fill="none"/></g><g><path d="M1384.06 1572C1384.06 1582.22 1375.78 1590.5 1365.56 1590.5 1355.35 1590.5 1347.06 1582.22 1347.06 1572 1347.06 1561.78 1355.35 1553.5 1365.56 1553.5 1375.78 1553.5 1384.06 1561.78 1384.06 1572Z" fill="#A5A5A5"/><path d="M1413.06 1573C1413.06 1583.22 1404.78 1591.5 1394.56 1591.5 1384.35 1591.5 1376.06 1583.22 1376.06 1573 1376.06 1562.78 1384.35 1554.5 1394.56 1554.5 1404.78 1554.5 1413.06 1562.78 1413.06 1573Z" fill="#A5A5A5"/><path d="M1442.06 1566C1442.06 1576.22 1433.78 1584.5 1423.56 1584.5 1413.35 1584.5 1405.06 1576.22 1405.06 1566 1405.06 1555.78 1413.35 1547.5 1423.56 1547.5 1433.78 1547.5 1442.06 1555.78 1442.06 1566Z" fill="#A5A5A5"/><path d="M1471.06 1690C1471.06 1700.22 1462.78 1708.5 1452.56 1708.5 1442.35 1708.5 1434.06 1700.22 1434.06 1690 1434.06 1679.78 1442.35 1671.5 1452.56 1671.5 1462.78 1671.5 1471.06 1679.78 1471.06 1690Z" fill="#A5A5A5"/><path d="M1500.06 1720C1500.06 1730.22 1491.78 1738.5 1481.56 1738.5 1471.35 1738.5 1463.06 1730.22 1463.06 1720 1463.06 1709.78 1471.35 1701.5 1481.56 1701.5 1491.78 1701.5 1500.06 1709.78 1500.06 1720Z" fill="#A5A5A5"/><path d="M1529.06 1533C1529.06 1543.22 1520.78 1551.5 1510.56 1551.5 1500.35 1551.5 1492.06 1543.22 1492.06 1533 1492.06 1522.78 1500.35 1514.5 1510.56 1514.5 1520.78 1514.5 1529.06 1522.78 1529.06 1533Z" fill="#A5A5A5"/><path d="M1558.06 1586C1558.06 1596.22 1549.78 1604.5 1539.56 1604.5 1529.35 1604.5 1521.06 1596.22 1521.06 1586 1521.06 1575.78 1529.35 1567.5 1539.56 1567.5 1549.78 1567.5 1558.06 1575.78 1558.06 1586Z" fill="#A5A5A5"/><path d="M1587.06 1623C1587.06 1633.22 1578.78 1641.5 1568.56 1641.5 1558.35 1641.5 1550.06 1633.22 1550.06 1623 1550.06 1612.78 1558.35 1604.5 1568.56 1604.5 1578.78 1604.5 1587.06 1612.78 1587.06 1623Z" fill="#A5A5A5"/><path d="M1615.06 1625C1615.06 1635.22 1606.78 1643.5 1596.56 1643.5 1586.35 1643.5 1578.06 1635.22 1578.06 1625 1578.06 1614.78 1586.35 1606.5 1596.56 1606.5 1606.78 1606.5 1615.06 1614.78 1615.06 1625Z" fill="#A5A5A5"/><path d="M1644.06 1492C1644.06 1502.22 1635.78 1510.5 1625.56 1510.5 1615.35 1510.5 1607.06 1502.22 1607.06 1492 1607.06 1481.78 1615.35 1473.5 1625.56 1473.5 1635.78 1473.5 1644.06 1481.78 1644.06 1492Z" fill="#A5A5A5"/><path d="M1673.06 1614C1673.06 1624.22 1664.78 1632.5 1654.56 1632.5 1644.35 1632.5 1636.06 1624.22 1636.06 1614 1636.06 1603.78 1644.35 1595.5 1654.56 1595.5 1664.78 1595.5 1673.06 1603.78 1673.06 1614Z" fill="#A5A5A5"/><path d="M1702.06 1577C1702.06 1587.22 1693.78 1595.5 1683.56 1595.5 1673.35 1595.5 1665.06 1587.22 1665.06 1577 1665.06 1566.78 1673.35 1558.5 1683.56 1558.5 1693.78 1558.5 1702.06 1566.78 1702.06 1577Z" fill="#A5A5A5"/><path d="M1731.06 1510C1731.06 1520.22 1722.78 1528.5 1712.56 1528.5 1702.35 1528.5 1694.06 1520.22 1694.06 1510 1694.06 1499.78 1702.35 1491.5 1712.56 1491.5 1722.78 1491.5 1731.06 1499.78 1731.06 1510Z" fill="#A5A5A5"/><path d="M1760.06 1621C1760.06 1631.22 1751.78 1639.5 1741.56 1639.5 1731.35 1639.5 1723.06 1631.22 1723.06 1621 1723.06 1610.78 1731.35 1602.5 1741.56 1602.5 1751.78 1602.5 1760.06 1610.78 1760.06 1621Z" fill="#A5A5A5"/><path d="M1789.06 1629C1789.06 1639.22 1780.78 1647.5 1770.56 1647.5 1760.35 1647.5 1752.06 1639.22 1752.06 1629 1752.06 1618.78 1760.35 1610.5 1770.56 1610.5 1780.78 1610.5 1789.06 1618.78 1789.06 1629Z" fill="#A5A5A5"/><path d="M1817.06 1694C1817.06 1704.22 1808.78 1712.5 1798.56 1712.5 1788.35 1712.5 1780.06 1704.22 1780.06 1694 1780.06 1683.78 1788.35 1675.5 1798.56 1675.5 1808.78 1675.5 1817.06 1683.78 1817.06 1694Z" fill="#A5A5A5"/><path d="M1846.06 1601C1846.06 1611.22 1837.78 1619.5 1827.56 1619.5 1817.35 1619.5 1809.06 1611.22 1809.06 1601 1809.06 1590.78 1817.35 1582.5 1827.56 1582.5 1837.78 1582.5 1846.06 1590.78 1846.06 1601Z" fill="#A5A5A5"/><path d="M1875.06 1619C1875.06 1629.22 1866.78 1637.5 1856.56 1637.5 1846.35 1637.5 1838.06 1629.22 1838.06 1619 1838.06 1608.78 1846.35 1600.5 1856.56 1600.5 1866.78 1600.5 1875.06 1608.78 1875.06 1619Z" fill="#A5A5A5"/><path d="M1904.06 1512C1904.06 1522.22 1895.78 1530.5 1885.56 1530.5 1875.35 1530.5 1867.06 1522.22 1867.06 1512 1867.06 1501.78 1875.35 1493.5 1885.56 1493.5 1895.78 1493.5 1904.06 1501.78 1904.06 1512Z" fill="#A5A5A5"/><path d="M1933.06 1606C1933.06 1616.22 1924.78 1624.5 1914.56 1624.5 1904.35 1624.5 1896.06 1616.22 1896.06 1606 1896.06 1595.78 1904.35 1587.5 1914.56 1587.5 1924.78 1587.5 1933.06 1595.78 1933.06 1606Z" fill="#A5A5A5"/><path d="M1962.06 1646C1962.06 1656.22 1953.78 1664.5 1943.56 1664.5 1933.35 1664.5 1925.06 1656.22 1925.06 1646 1925.06 1635.78 1933.35 1627.5 1943.56 1627.5 1953.78 1627.5 1962.06 1635.78 1962.06 1646Z" fill="#A5A5A5"/><path d="M1991.06 1570C1991.06 1580.22 1982.78 1588.5 1972.56 1588.5 1962.35 1588.5 1954.06 1580.22 1954.06 1570 1954.06 1559.78 1962.35 1551.5 1972.56 1551.5 1982.78 1551.5 1991.06 1559.78 1991.06 1570Z" fill="#A5A5A5"/><path d="M2020.06 1502C2020.06 1512.22 2011.78 1520.5 2001.56 1520.5 1991.35 1520.5 1983.06 1512.22 1983.06 1502 1983.06 1491.78 1991.35 1483.5 2001.56 1483.5 2011.78 1483.5 2020.06 1491.78 2020.06 1502Z" fill="#A5A5A5"/><path d="M2048.06 1587C2048.06 1597.22 2039.78 1605.5 2029.56 1605.5 2019.35 1605.5 2011.06 1597.22 2011.06 1587 2011.06 1576.78 2019.35 1568.5 2029.56 1568.5 2039.78 1568.5 2048.06 1576.78 2048.06 1587Z" fill="#A5A5A5"/><path d="M2077.06 1596C2077.06 1606.22 2068.78 1614.5 2058.56 1614.5 2048.35 1614.5 2040.06 1606.22 2040.06 1596 2040.06 1585.78 2048.35 1577.5 2058.56 1577.5 2068.78 1577.5 2077.06 1585.78 2077.06 1596Z" fill="#A5A5A5"/><path d="M2106.06 1635C2106.06 1645.22 2097.78 1653.5 2087.56 1653.5 2077.35 1653.5 2069.06 1645.22 2069.06 1635 2069.06 1624.78 2077.35 1616.5 2087.56 1616.5 2097.78 1616.5 2106.06 1624.78 2106.06 1635Z" fill="#A5A5A5"/><path d="M2135.06 1572C2135.06 1582.22 2126.78 1590.5 2116.56 1590.5 2106.35 1590.5 2098.06 1582.22 2098.06 1572 2098.06 1561.78 2106.35 1553.5 2116.56 1553.5 2126.78 1553.5 2135.06 1561.78 2135.06 1572Z" fill="#A5A5A5"/><path d="M2164.06 1635C2164.06 1645.22 2155.78 1653.5 2145.56 1653.5 2135.35 1653.5 2127.06 1645.22 2127.06 1635 2127.06 1624.78 2135.35 1616.5 2145.56 1616.5 2155.78 1616.5 2164.06 1624.78 2164.06 1635Z" fill="#A5A5A5"/><path d="M2193.06 1604C2193.06 1614.22 2184.78 1622.5 2174.56 1622.5 2164.35 1622.5 2156.06 1614.22 2156.06 1604 2156.06 1593.78 2164.35 1585.5 2174.56 1585.5 2184.78 1585.5 2193.06 1593.78 2193.06 1604Z" fill="#A5A5A5"/><path d="M2222.06 1626C2222.06 1636.22 2213.78 1644.5 2203.56 1644.5 2193.35 1644.5 2185.06 1636.22 2185.06 1626 2185.06 1615.78 2193.35 1607.5 2203.56 1607.5 2213.78 1607.5 2222.06 1615.78 2222.06 1626Z" fill="#A5A5A5"/></g><g><text font-family="Arial,Arial_MSFontService,sans-serif" font-weight="400" font-size="46" transform="matrix(1 0 0 1 2256.6 2134)">0</text></g><g><text font-family="Arial,Arial_MSFontService,sans-serif" font-weight="400" font-size="46" transform="matrix(1 0 0 1 2256.6 1989)">0.5</text></g><g><text font-family="Arial,Arial_MSFontService,sans-serif" font-weight="400" font-size="46" transform="matrix(1 0 0 1 2256.6 1844)">1</text></g><g><text font-family="Arial,Arial_MSFontService,sans-serif" font-weight="400" font-size="46" transform="matrix(1 0 0 1 2256.6 1699)">1.5</text></g><g><text font-family="Arial,Arial_MSFontService,sans-serif" font-weight="400" font-size="46" transform="matrix(1 0 0 1 2256.6 1554)">2</text></g><g><text font-family="Arial,Arial_MSFontService,sans-serif" font-weight="400" font-size="46" transform="matrix(1 0 0 1 2256.6 1409)">2.5</text></g><g><text font-family="Arial,Arial_MSFontService,sans-serif" font-weight="400" font-size="46" transform="matrix(1 0 0 1 1286.04 2134)">0</text></g><g><text font-family="Arial,Arial_MSFontService,sans-serif" font-weight="400" font-size="46" transform="matrix(1 0 0 1 1247.81 2013)">0.2</text></g><g><text font-family="Arial,Arial_MSFontService,sans-serif" font-weight="400" font-size="46" transform="matrix(1 0 0 1 1247.81 1892)">0.4</text></g><g><text font-family="Arial,Arial_MSFontService,sans-serif" font-weight="400" font-size="46" transform="matrix(1 0 0 1 1247.81 1771)">0.6</text></g><g><text font-family="Arial,Arial_MSFontService,sans-serif" font-weight="400" font-size="46" transform="matrix(1 0 0 1 1247.81 1650)">0.8</text></g><g><text font-family="Arial,Arial_MSFontService,sans-serif" font-weight="400" font-size="46" transform="matrix(1 0 0 1 1286.04 1530)">1</text></g><g><text font-family="Arial,Arial_MSFontService,sans-serif" font-weight="400" font-size="46" transform="matrix(1 0 0 1 1247.81 1409)">1.2</text></g><g><text font-family="Arial,Arial_MSFontService,sans-serif" font-weight="400" font-size="46" transform="matrix(1 0 0 1 1352.66 2188)">1</text></g><g><text font-family="Arial,Arial_MSFontService,sans-serif" font-weight="400" font-size="46" transform="matrix(1 0 0 1 1439.28 2188)">4</text></g><g><text font-family="Arial,Arial_MSFontService,sans-serif" font-weight="400" font-size="46" transform="matrix(1 0 0 1 1525.9 2188)">7</text></g><g><text font-family="Arial,Arial_MSFontService,sans-serif" font-weight="400" font-size="46" transform="matrix(1 0 0 1 1599.78 2188)">10</text></g><g><text font-family="Arial,Arial_MSFontService,sans-serif" font-weight="400" font-size="46" transform="matrix(1 0 0 1 1686.4 2188)">13</text></g><g><text font-family="Arial,Arial_MSFontService,sans-serif" font-weight="400" font-size="46" transform="matrix(1 0 0 1 1773.02 2188)">16</text></g><g><text font-family="Arial,Arial_MSFontService,sans-serif" font-weight="400" font-size="46" transform="matrix(1 0 0 1 1859.64 2188)">19</text></g><g><text font-family="Arial,Arial_MSFontService,sans-serif" font-weight="400" font-size="46" transform="matrix(1 0 0 1 1946.26 2188)">22</text></g><g><text font-family="Arial,Arial_MSFontService,sans-serif" font-weight="400" font-size="46" transform="matrix(1 0 0 1 2032.87 2188)">25</text></g><g><text font-family="Arial,Arial_MSFontService,sans-serif" font-weight="400" font-size="46" transform="matrix(1 0 0 1 2119.49 2188)">28</text></g><g><text font-family="Arial,Arial_MSFontService,sans-serif" font-weight="400" font-size="46" transform="matrix(6.12323e-17 -1 1 6.12323e-17 2377.05 1863)">MAPE (%)</text></g><g><text font-family="Arial,Arial_MSFontService,sans-serif" font-weight="400" font-size="46" transform="matrix(6.12323e-17 -1 1 6.12323e-17 1224.35 1881)">RMSE (KW)</text></g><g><path d="M1452 1304 1540 1304" stroke="#ED7D31" stroke-width="13.75" stroke-linecap="round" stroke-linejoin="round" stroke-miterlimit="10" fill="none" fill-rule="evenodd"/></g><g><path d="M1508 1303.5C1508 1310.96 1501.96 1317 1494.5 1317 1487.04 1317 1481 1310.96 1481 1303.5 1481 1296.04 1487.04 1290 1494.5 1290 1501.96 1290 1508 1296.04 1508 1303.5Z" fill="#ED7D31"/></g><g><text font-family="Arial,Arial_MSFontService,sans-serif" font-weight="400" font-size="46" transform="matrix(1 0 0 1 1548.89 1319)">RMSE_CL</text></g><g><path d="M1821 1304 1909 1304" stroke="#A5A5A5" stroke-width="13.75" stroke-linecap="round" stroke-linejoin="round" stroke-miterlimit="10" fill="none" fill-rule="evenodd"/></g><g><path d="M1878 1303.5C1878 1310.96 1871.96 1317 1864.5 1317 1857.04 1317 1851 1310.96 1851 1303.5 1851 1296.04 1857.04 1290 1864.5 1290 1871.96 1290 1878 1296.04 1878 1303.5Z" fill="#A5A5A5"/></g><g><text font-family="Arial,Arial_MSFontService,sans-serif" font-weight="400" font-size="46" transform="matrix(1 0 0 1 1918.72 1319)">MAPE_CL</text></g><rect x="1124.5" y="1238.5" width="1320" height="989" stroke="#D9D9D9" stroke-width="3.4375" stroke-linejoin="round" stroke-miterlimit="10" fill="none"/></g></svg>