<svg width="1323" height="992" xmlns="http://www.w3.org/2000/svg" xmlns:xlink="http://www.w3.org/1999/xlink" xml:space="preserve" overflow="hidden"><defs><clipPath id="clip0"><rect x="1123" y="137" width="1323" height="992"/></clipPath></defs><g clip-path="url(#clip0)" transform="translate(-1123 -137)"><rect x="1124" y="138" width="1320" height="989" fill="#FFFFFF"/><g><path d="M1376.5 1004.53 2217.5 1004.53M1376.5 989.533 2217.5 989.533M1376.5 975.532 2217.5 975.532M1376.5 960.532 2217.5 960.532M1376.5 931.531 2217.5 931.531M1376.5 917.53 2217.5 917.53M1376.5 902.53 2217.5 902.53M1376.5 888.529 2217.5 888.529M1376.5 859.528 2217.5 859.528M1376.5 844.528 2217.5 844.528M1376.5 830.527 2217.5 830.527M1376.5 815.527 2217.5 815.527M1376.5 786.526 2217.5 786.526M1376.5 772.526 2217.5 772.526M1376.5 757.525 2217.5 757.525M1376.5 743.525 2217.5 743.525M1376.5 714.524 2217.5 714.524M1376.5 699.523 2217.5 699.523M1376.5 685.523 2217.5 685.523M1376.5 670.522 2217.5 670.522M1376.5 641.521 2217.5 641.521M1376.5 627.521 2217.5 627.521M1376.5 612.52 2217.5 612.52M1376.5 598.52 2217.5 598.52M1376.5 569.519 2217.5 569.519M1376.5 554.518 2217.5 554.518M1376.5 540.518 2217.5 540.518M1376.5 525.517 2217.5 525.517M1376.5 496.516 2217.5 496.516M1376.5 482.516 2217.5 482.516M1376.5 467.516 2217.5 467.516M1376.5 453.515 2217.5 453.515M1376.5 424.514 2217.5 424.514M1376.5 409.514 2217.5 409.514M1376.5 395.513 2217.5 395.513M1376.5 380.513 2217.5 380.513M1376.5 351.512 2217.5 351.512M1376.5 337.511 2217.5 337.511M1376.5 322.511 2217.5 322.511M1376.5 308.51 2217.5 308.51" stroke="#F2F2F2" stroke-width="3.4375" stroke-linejoin="round" stroke-miterlimit="10" fill="none"/></g><g><path d="M1376.5 946.531 2217.5 946.531M1376.5 873.529 2217.5 873.529M1376.5 801.526 2217.5 801.526M1376.5 728.524 2217.5 728.524M1376.5 656.522 2217.5 656.522M1376.5 583.519 2217.5 583.519M1376.5 511.517 2217.5 511.517M1376.5 438.515 2217.5 438.515M1376.5 366.512 2217.5 366.512M1376.5 293.5 2217.5 293.5" stroke="#D9D9D9" stroke-width="3.4375" stroke-linejoin="round" stroke-miterlimit="10" fill="none"/></g><g><path d="M1376.5 1018.5 2217.5 1018.5" stroke="#D9D9D9" stroke-width="3.4375" stroke-linejoin="round" stroke-miterlimit="10" fill="none" fill-rule="evenodd"/></g><g><path d="M1376.5 1018.5 1376.5 1032.5M1404.55 1018.5 1404.55 1032.5M1432.55 1018.5 1432.55 1032.5M1460.55 1018.5 1460.55 1032.5M1488.55 1018.5 1488.55 1032.5M1516.55 1018.5 1516.55 1032.5M1544.55 1018.5 1544.55 1032.5M1572.55 1018.5 1572.55 1032.5M1600.55 1018.5 1600.55 1032.5M1628.55 1018.5 1628.55 1032.5M1656.55 1018.5 1656.55 1032.5M1684.56 1018.5 1684.56 1032.5M1712.56 1018.5 1712.56 1032.5M1740.56 1018.5 1740.56 1032.5M1768.56 1018.5 1768.56 1032.5M1796.56 1018.5 1796.56 1032.5M1824.56 1018.5 1824.56 1032.5M1852.56 1018.5 1852.56 1032.5M1880.56 1018.5 1880.56 1032.5M1908.56 1018.5 1908.56 1032.5M1936.56 1018.5 1936.56 1032.5M1964.56 1018.5 1964.56 1032.5M1992.57 1018.5 1992.57 1032.5M2020.57 1018.5 2020.57 1032.5M2048.57 1018.5 2048.57 1032.5M2076.57 1018.5 2076.57 1032.5M2104.57 1018.5 2104.57 1032.5M2133.57 1018.5 2133.57 1032.5M2161.57 1018.5 2161.57 1032.5M2189.57 1018.5 2189.57 1032.5M2217.5 1018.5 2217.5 1032.5" stroke="#D9D9D9" stroke-width="3.4375" stroke-linejoin="round" stroke-miterlimit="10" fill="none"/></g><g><path d="M1390 445.015 1418.05 542.018 1446.05 454.015 1474.05 532.017 1503.05 552.018 1531.05 485.016 1559.05 550.018 1587.05 598.02 1615.05 529.017 1643.05 597.02 1671.05 491.016 1699.06 636.021 1727.06 563.018 1755.06 530.017 1783.06 571.019 1811.06 528.017 1839.06 542.018 1867.06 625.021 1895.06 361 1923.06 632.021 1951.06 567.019 1979.06 533.017 2007.07 499.016 2035.07 489.016 2063.07 438.014 2091.07 535.018 2119.07 646 2147.07 486.016 2175.07 628.021 2203 625.021" stroke="#ED7D31" stroke-width="13.75" stroke-linecap="round" stroke-linejoin="round" stroke-miterlimit="10" fill="none"/></g><g><path d="M1409.06 445.999C1409.06 456.217 1400.78 464.499 1390.56 464.499 1380.35 464.499 1372.06 456.217 1372.06 445.999 1372.06 435.782 1380.35 427.5 1390.56 427.5 1400.78 427.5 1409.06 435.782 1409.06 445.999Z" fill="#ED7D31"/><path d="M1437.06 542.999C1437.06 553.216 1428.78 561.499 1418.56 561.499 1408.35 561.499 1400.06 553.216 1400.06 542.999 1400.06 532.782 1408.35 524.5 1418.56 524.5 1428.78 524.5 1437.06 532.782 1437.06 542.999Z" fill="#ED7D31"/><path d="M1466.06 454.999C1466.06 465.216 1457.78 473.499 1447.56 473.499 1437.35 473.499 1429.06 465.216 1429.06 454.999 1429.06 444.782 1437.35 436.5 1447.56 436.5 1457.78 436.5 1466.06 444.782 1466.06 454.999Z" fill="#ED7D31"/><path d="M1494.06 532.999C1494.06 543.217 1485.78 551.499 1475.56 551.499 1465.35 551.499 1457.06 543.217 1457.06 532.999 1457.06 522.782 1465.35 514.5 1475.56 514.5 1485.78 514.5 1494.06 522.782 1494.06 532.999Z" fill="#ED7D31"/><path d="M1522.06 552.999C1522.06 563.216 1513.78 571.499 1503.56 571.499 1493.35 571.499 1485.06 563.216 1485.06 552.999 1485.06 542.782 1493.35 534.5 1503.56 534.5 1513.78 534.5 1522.06 542.782 1522.06 552.999Z" fill="#ED7D31"/><path d="M1550.06 485.999C1550.06 496.216 1541.78 504.499 1531.56 504.499 1521.35 504.499 1513.06 496.216 1513.06 485.999 1513.06 475.782 1521.35 467.5 1531.56 467.5 1541.78 467.5 1550.06 475.782 1550.06 485.999Z" fill="#ED7D31"/><path d="M1578.06 551C1578.06 561.217 1569.78 569.499 1559.56 569.499 1549.35 569.499 1541.06 561.217 1541.06 551 1541.06 540.783 1549.35 532.5 1559.56 532.5 1569.78 532.5 1578.06 540.783 1578.06 551Z" fill="#ED7D31"/><path d="M1606.06 598.999C1606.06 609.217 1597.78 617.499 1587.56 617.499 1577.35 617.499 1569.06 609.217 1569.06 598.999 1569.06 588.782 1577.35 580.5 1587.56 580.5 1597.78 580.5 1606.06 588.782 1606.06 598.999Z" fill="#ED7D31"/><path d="M1634.06 529.999C1634.06 540.216 1625.78 548.499 1615.56 548.499 1605.35 548.499 1597.06 540.216 1597.06 529.999 1597.06 519.782 1605.35 511.5 1615.56 511.5 1625.78 511.5 1634.06 519.782 1634.06 529.999Z" fill="#ED7D31"/><path d="M1662.06 597.999C1662.06 608.216 1653.78 616.499 1643.56 616.499 1633.35 616.499 1625.06 608.216 1625.06 597.999 1625.06 587.782 1633.35 579.5 1643.56 579.5 1653.78 579.5 1662.06 587.782 1662.06 597.999Z" fill="#ED7D31"/><path d="M1690.06 492C1690.06 502.217 1681.78 510.499 1671.56 510.499 1661.35 510.499 1653.06 502.217 1653.06 492 1653.06 481.782 1661.35 473.5 1671.56 473.5 1681.78 473.5 1690.06 481.782 1690.06 492Z" fill="#ED7D31"/><path d="M1718.06 637C1718.06 647.217 1709.78 655.499 1699.56 655.499 1689.35 655.499 1681.06 647.217 1681.06 637 1681.06 626.782 1689.35 618.5 1699.56 618.5 1709.78 618.5 1718.06 626.782 1718.06 637Z" fill="#ED7D31"/><path d="M1746.06 563.999C1746.06 574.216 1737.78 582.499 1727.56 582.499 1717.35 582.499 1709.06 574.216 1709.06 563.999 1709.06 553.782 1717.35 545.5 1727.56 545.5 1737.78 545.5 1746.06 553.782 1746.06 563.999Z" fill="#ED7D31"/><path d="M1774.06 530.999C1774.06 541.216 1765.78 549.499 1755.56 549.499 1745.35 549.499 1737.06 541.216 1737.06 530.999 1737.06 520.782 1745.35 512.5 1755.56 512.5 1765.78 512.5 1774.06 520.782 1774.06 530.999Z" fill="#ED7D31"/><path d="M1802.06 572C1802.06 582.217 1793.78 590.499 1783.56 590.499 1773.35 590.499 1765.06 582.217 1765.06 572 1765.06 561.783 1773.35 553.5 1783.56 553.5 1793.78 553.5 1802.06 561.783 1802.06 572Z" fill="#ED7D31"/><path d="M1830.06 529C1830.06 539.217 1821.78 547.499 1811.56 547.499 1801.35 547.499 1793.06 539.217 1793.06 529 1793.06 518.783 1801.35 510.5 1811.56 510.5 1821.78 510.5 1830.06 518.783 1830.06 529Z" fill="#ED7D31"/><path d="M1858.06 542.999C1858.06 553.216 1849.78 561.499 1839.56 561.499 1829.35 561.499 1821.06 553.216 1821.06 542.999 1821.06 532.782 1829.35 524.5 1839.56 524.5 1849.78 524.5 1858.06 532.782 1858.06 542.999Z" fill="#ED7D31"/><path d="M1886.06 626C1886.06 636.217 1877.78 644.499 1867.56 644.499 1857.35 644.499 1849.06 636.217 1849.06 626 1849.06 615.782 1857.35 607.5 1867.56 607.5 1877.78 607.5 1886.06 615.782 1886.06 626Z" fill="#ED7D31"/><path d="M1914.06 362C1914.06 372.217 1905.78 380.499 1895.56 380.499 1885.35 380.499 1877.06 372.217 1877.06 362 1877.06 351.783 1885.35 343.5 1895.56 343.5 1905.78 343.5 1914.06 351.783 1914.06 362Z" fill="#ED7D31"/><path d="M1942.06 632.999C1942.06 643.217 1933.78 651.499 1923.56 651.499 1913.35 651.499 1905.06 643.217 1905.06 632.999 1905.06 622.782 1913.35 614.5 1923.56 614.5 1933.78 614.5 1942.06 622.782 1942.06 632.999Z" fill="#ED7D31"/><path d="M1970.06 568C1970.06 578.217 1961.78 586.499 1951.56 586.499 1941.35 586.499 1933.06 578.217 1933.06 568 1933.06 557.782 1941.35 549.5 1951.56 549.5 1961.78 549.5 1970.06 557.782 1970.06 568Z" fill="#ED7D31"/><path d="M1998.06 533.999C1998.06 544.217 1989.78 552.499 1979.56 552.499 1969.35 552.499 1961.06 544.217 1961.06 533.999 1961.06 523.782 1969.35 515.5 1979.56 515.5 1989.78 515.5 1998.06 523.782 1998.06 533.999Z" fill="#ED7D31"/><path d="M2026.06 499.999C2026.06 510.217 2017.78 518.499 2007.56 518.499 1997.35 518.499 1989.06 510.217 1989.06 499.999 1989.06 489.782 1997.35 481.5 2007.56 481.5 2017.78 481.5 2026.06 489.782 2026.06 499.999Z" fill="#ED7D31"/><path d="M2054.06 489.999C2054.06 500.217 2045.78 508.499 2035.56 508.499 2025.35 508.499 2017.06 500.217 2017.06 489.999 2017.06 479.782 2025.35 471.5 2035.56 471.5 2045.78 471.5 2054.06 479.782 2054.06 489.999Z" fill="#ED7D31"/><path d="M2082.06 440C2082.06 450.217 2073.78 458.499 2063.56 458.499 2053.35 458.499 2045.06 450.217 2045.06 440 2045.06 429.783 2053.35 421.5 2063.56 421.5 2073.78 421.5 2082.06 429.783 2082.06 440Z" fill="#ED7D31"/><path d="M2110.06 536C2110.06 546.217 2101.78 554.499 2091.56 554.499 2081.35 554.499 2073.06 546.217 2073.06 536 2073.06 525.782 2081.35 517.5 2091.56 517.5 2101.78 517.5 2110.06 525.782 2110.06 536Z" fill="#ED7D31"/><path d="M2138.06 647C2138.06 657.217 2129.78 665.499 2119.56 665.499 2109.35 665.499 2101.06 657.217 2101.06 647 2101.06 636.782 2109.35 628.5 2119.56 628.5 2129.78 628.5 2138.06 636.782 2138.06 647Z" fill="#ED7D31"/><path d="M2166.06 486.999C2166.06 497.216 2157.78 505.499 2147.56 505.499 2137.35 505.499 2129.06 497.216 2129.06 486.999 2129.06 476.782 2137.35 468.5 2147.56 468.5 2157.78 468.5 2166.06 476.782 2166.06 486.999Z" fill="#ED7D31"/><path d="M2194.06 629.999C2194.06 640.216 2185.78 648.499 2175.56 648.499 2165.35 648.499 2157.06 640.216 2157.06 629.999 2157.06 619.782 2165.35 611.5 2175.56 611.5 2185.78 611.5 2194.06 619.782 2194.06 629.999Z" fill="#ED7D31"/><path d="M2222.06 626C2222.06 636.217 2213.78 644.499 2203.56 644.499 2193.35 644.499 2185.06 636.217 2185.06 626 2185.06 615.782 2193.35 607.5 2203.56 607.5 2213.78 607.5 2222.06 615.782 2222.06 626Z" fill="#ED7D31"/></g><g><path d="M1390 449.015 1418.05 456.015 1446.05 428.014 1474.05 414.014 1503.05 444.015 1531.05 468.015 1559.05 462.015 1587.05 521.017 1615.05 429.014 1643.05 559.018 1671.05 434.014 1699.06 545.018 1727.06 460.015 1755.06 432.014 1783.06 490.016 1811.06 496.016 1839.06 517.017 1867.06 561 1895.06 359 1923.06 557.018 1951.06 462.015 1979.06 478.016 2007.07 498.016 2035.07 476.016 2063.07 371.012 2091.07 425.014 2119.07 532.017 2147.07 480.016 2175.07 484.016 2203 453.015" stroke="#A5A5A5" stroke-width="13.75" stroke-linecap="round" stroke-linejoin="round" stroke-miterlimit="10" fill="none"/></g><g><path d="M1409.06 450C1409.06 460.217 1400.78 468.499 1390.56 468.499 1380.35 468.499 1372.06 460.217 1372.06 450 1372.06 439.783 1380.35 431.5 1390.56 431.5 1400.78 431.5 1409.06 439.783 1409.06 450Z" fill="#A5A5A5"/><path d="M1437.06 456.999C1437.06 467.217 1428.78 475.499 1418.56 475.499 1408.35 475.499 1400.06 467.217 1400.06 456.999 1400.06 446.782 1408.35 438.5 1418.56 438.5 1428.78 438.5 1437.06 446.782 1437.06 456.999Z" fill="#A5A5A5"/><path d="M1466.06 429C1466.06 439.217 1457.78 447.499 1447.56 447.499 1437.35 447.499 1429.06 439.217 1429.06 429 1429.06 418.783 1437.35 410.5 1447.56 410.5 1457.78 410.5 1466.06 418.783 1466.06 429Z" fill="#A5A5A5"/><path d="M1494.06 415C1494.06 425.217 1485.78 433.499 1475.56 433.499 1465.35 433.499 1457.06 425.217 1457.06 415 1457.06 404.782 1465.35 396.5 1475.56 396.5 1485.78 396.5 1494.06 404.782 1494.06 415Z" fill="#A5A5A5"/><path d="M1522.06 444.999C1522.06 455.217 1513.78 463.499 1503.56 463.499 1493.35 463.499 1485.06 455.217 1485.06 444.999 1485.06 434.782 1493.35 426.5 1503.56 426.5 1513.78 426.5 1522.06 434.782 1522.06 444.999Z" fill="#A5A5A5"/><path d="M1550.06 469C1550.06 479.217 1541.78 487.499 1531.56 487.499 1521.35 487.499 1513.06 479.217 1513.06 469 1513.06 458.782 1521.35 450.5 1531.56 450.5 1541.78 450.5 1550.06 458.782 1550.06 469Z" fill="#A5A5A5"/><path d="M1578.06 463C1578.06 473.217 1569.78 481.499 1559.56 481.499 1549.35 481.499 1541.06 473.217 1541.06 463 1541.06 452.783 1549.35 444.5 1559.56 444.5 1569.78 444.5 1578.06 452.783 1578.06 463Z" fill="#A5A5A5"/><path d="M1606.06 521.999C1606.06 532.217 1597.78 540.499 1587.56 540.499 1577.35 540.499 1569.06 532.217 1569.06 521.999 1569.06 511.782 1577.35 503.5 1587.56 503.5 1597.78 503.5 1606.06 511.782 1606.06 521.999Z" fill="#A5A5A5"/><path d="M1634.06 430C1634.06 440.217 1625.78 448.499 1615.56 448.499 1605.35 448.499 1597.06 440.217 1597.06 430 1597.06 419.783 1605.35 411.5 1615.56 411.5 1625.78 411.5 1634.06 419.783 1634.06 430Z" fill="#A5A5A5"/><path d="M1662.06 560C1662.06 570.217 1653.78 578.499 1643.56 578.499 1633.35 578.499 1625.06 570.217 1625.06 560 1625.06 549.782 1633.35 541.5 1643.56 541.5 1653.78 541.5 1662.06 549.782 1662.06 560Z" fill="#A5A5A5"/><path d="M1690.06 434.999C1690.06 445.217 1681.78 453.499 1671.56 453.499 1661.35 453.499 1653.06 445.217 1653.06 434.999 1653.06 424.782 1661.35 416.5 1671.56 416.5 1681.78 416.5 1690.06 424.782 1690.06 434.999Z" fill="#A5A5A5"/><path d="M1718.06 546C1718.06 556.217 1709.78 564.499 1699.56 564.499 1689.35 564.499 1681.06 556.217 1681.06 546 1681.06 535.782 1689.35 527.5 1699.56 527.5 1709.78 527.5 1718.06 535.782 1718.06 546Z" fill="#A5A5A5"/><path d="M1746.06 461C1746.06 471.217 1737.78 479.499 1727.56 479.499 1717.35 479.499 1709.06 471.217 1709.06 461 1709.06 450.783 1717.35 442.5 1727.56 442.5 1737.78 442.5 1746.06 450.783 1746.06 461Z" fill="#A5A5A5"/><path d="M1774.06 432.999C1774.06 443.216 1765.78 451.499 1755.56 451.499 1745.35 451.499 1737.06 443.216 1737.06 432.999 1737.06 422.782 1745.35 414.5 1755.56 414.5 1765.78 414.5 1774.06 422.782 1774.06 432.999Z" fill="#A5A5A5"/><path d="M1802.06 491C1802.06 501.217 1793.78 509.499 1783.56 509.499 1773.35 509.499 1765.06 501.217 1765.06 491 1765.06 480.782 1773.35 472.5 1783.56 472.5 1793.78 472.5 1802.06 480.782 1802.06 491Z" fill="#A5A5A5"/><path d="M1830.06 496.999C1830.06 507.216 1821.78 515.499 1811.56 515.499 1801.35 515.499 1793.06 507.216 1793.06 496.999 1793.06 486.782 1801.35 478.5 1811.56 478.5 1821.78 478.5 1830.06 486.782 1830.06 496.999Z" fill="#A5A5A5"/><path d="M1858.06 518C1858.06 528.217 1849.78 536.499 1839.56 536.499 1829.35 536.499 1821.06 528.217 1821.06 518 1821.06 507.783 1829.35 499.5 1839.56 499.5 1849.78 499.5 1858.06 507.783 1858.06 518Z" fill="#A5A5A5"/><path d="M1886.06 562C1886.06 572.217 1877.78 580.499 1867.56 580.499 1857.35 580.499 1849.06 572.217 1849.06 562 1849.06 551.783 1857.35 543.5 1867.56 543.5 1877.78 543.5 1886.06 551.783 1886.06 562Z" fill="#A5A5A5"/><path d="M1914.06 360C1914.06 370.217 1905.78 378.499 1895.56 378.499 1885.35 378.499 1877.06 370.217 1877.06 360 1877.06 349.782 1885.35 341.5 1895.56 341.5 1905.78 341.5 1914.06 349.782 1914.06 360Z" fill="#A5A5A5"/><path d="M1942.06 558C1942.06 568.217 1933.78 576.499 1923.56 576.499 1913.35 576.499 1905.06 568.217 1905.06 558 1905.06 547.782 1913.35 539.5 1923.56 539.5 1933.78 539.5 1942.06 547.782 1942.06 558Z" fill="#A5A5A5"/><path d="M1970.06 463C1970.06 473.217 1961.78 481.499 1951.56 481.499 1941.35 481.499 1933.06 473.217 1933.06 463 1933.06 452.783 1941.35 444.5 1951.56 444.5 1961.78 444.5 1970.06 452.783 1970.06 463Z" fill="#A5A5A5"/><path d="M1998.06 478.999C1998.06 489.217 1989.78 497.499 1979.56 497.499 1969.35 497.499 1961.06 489.217 1961.06 478.999 1961.06 468.782 1969.35 460.5 1979.56 460.5 1989.78 460.5 1998.06 468.782 1998.06 478.999Z" fill="#A5A5A5"/><path d="M2026.06 498.999C2026.06 509.216 2017.78 517.499 2007.56 517.499 1997.35 517.499 1989.06 509.216 1989.06 498.999 1989.06 488.782 1997.35 480.5 2007.56 480.5 2017.78 480.5 2026.06 488.782 2026.06 498.999Z" fill="#A5A5A5"/><path d="M2054.06 476.999C2054.06 487.216 2045.78 495.499 2035.56 495.499 2025.35 495.499 2017.06 487.216 2017.06 476.999 2017.06 466.782 2025.35 458.5 2035.56 458.5 2045.78 458.5 2054.06 466.782 2054.06 476.999Z" fill="#A5A5A5"/><path d="M2082.06 372C2082.06 382.217 2073.78 390.499 2063.56 390.499 2053.35 390.499 2045.06 382.217 2045.06 372 2045.06 361.782 2053.35 353.5 2063.56 353.5 2073.78 353.5 2082.06 361.782 2082.06 372Z" fill="#A5A5A5"/><path d="M2110.06 426C2110.06 436.217 2101.78 444.499 2091.56 444.499 2081.35 444.499 2073.06 436.217 2073.06 426 2073.06 415.782 2081.35 407.5 2091.56 407.5 2101.78 407.5 2110.06 415.782 2110.06 426Z" fill="#A5A5A5"/><path d="M2138.06 532.999C2138.06 543.217 2129.78 551.499 2119.56 551.499 2109.35 551.499 2101.06 543.217 2101.06 532.999 2101.06 522.782 2109.35 514.5 2119.56 514.5 2129.78 514.5 2138.06 522.782 2138.06 532.999Z" fill="#A5A5A5"/><path d="M2166.06 481C2166.06 491.217 2157.78 499.499 2147.56 499.499 2137.35 499.499 2129.06 491.217 2129.06 481 2129.06 470.782 2137.35 462.5 2147.56 462.5 2157.78 462.5 2166.06 470.782 2166.06 481Z" fill="#A5A5A5"/><path d="M2194.06 485C2194.06 495.217 2185.78 503.499 2175.56 503.499 2165.35 503.499 2157.06 495.217 2157.06 485 2157.06 474.783 2165.35 466.5 2175.56 466.5 2185.78 466.5 2194.06 474.783 2194.06 485Z" fill="#A5A5A5"/><path d="M2222.06 453.999C2222.06 464.216 2213.78 472.499 2203.56 472.499 2193.35 472.499 2185.06 464.216 2185.06 453.999 2185.06 443.782 2193.35 435.5 2203.56 435.5 2213.78 435.5 2222.06 443.782 2222.06 453.999Z" fill="#A5A5A5"/></g><g><text font-family="Arial,Arial_MSFontService,sans-serif" font-weight="400" font-size="46" transform="matrix(1 0 0 1 2256.6 1034)">0</text></g><g><text font-family="Arial,Arial_MSFontService,sans-serif" font-weight="400" font-size="46" transform="matrix(1 0 0 1 2256.6 930)">0.2</text></g><g><text font-family="Arial,Arial_MSFontService,sans-serif" font-weight="400" font-size="46" transform="matrix(1 0 0 1 2256.6 827)">0.4</text></g><g><text font-family="Arial,Arial_MSFontService,sans-serif" font-weight="400" font-size="46" transform="matrix(1 0 0 1 2256.6 723)">0.6</text></g><g><text font-family="Arial,Arial_MSFontService,sans-serif" font-weight="400" font-size="46" transform="matrix(1 0 0 1 2256.6 619)">0.8</text></g><g><text font-family="Arial,Arial_MSFontService,sans-serif" font-weight="400" font-size="46" transform="matrix(1 0 0 1 2256.6 516)">1</text></g><g><text font-family="Arial,Arial_MSFontService,sans-serif" font-weight="400" font-size="46" transform="matrix(1 0 0 1 2256.6 412)">1.2</text></g><g><text font-family="Arial,Arial_MSFontService,sans-serif" font-weight="400" font-size="46" transform="matrix(1 0 0 1 2256.6 309)">1.4</text></g><g><text font-family="Arial,Arial_MSFontService,sans-serif" font-weight="400" font-size="46" transform="matrix(1 0 0 1 1311.52 1034)">0</text></g><g><text font-family="Arial,Arial_MSFontService,sans-serif" font-weight="400" font-size="46" transform="matrix(1 0 0 1 1247.81 961)">0.05</text></g><g><text font-family="Arial,Arial_MSFontService,sans-serif" font-weight="400" font-size="46" transform="matrix(1 0 0 1 1273.3 889)">0.1</text></g><g><text font-family="Arial,Arial_MSFontService,sans-serif" font-weight="400" font-size="46" transform="matrix(1 0 0 1 1247.81 816)">0.15</text></g><g><text font-family="Arial,Arial_MSFontService,sans-serif" font-weight="400" font-size="46" transform="matrix(1 0 0 1 1273.3 744)">0.2</text></g><g><text font-family="Arial,Arial_MSFontService,sans-serif" font-weight="400" font-size="46" transform="matrix(1 0 0 1 1247.81 671)">0.25</text></g><g><text font-family="Arial,Arial_MSFontService,sans-serif" font-weight="400" font-size="46" transform="matrix(1 0 0 1 1273.3 599)">0.3</text></g><g><text font-family="Arial,Arial_MSFontService,sans-serif" font-weight="400" font-size="46" transform="matrix(1 0 0 1 1247.81 526)">0.35</text></g><g><text font-family="Arial,Arial_MSFontService,sans-serif" font-weight="400" font-size="46" transform="matrix(1 0 0 1 1273.3 454)">0.4</text></g><g><text font-family="Arial,Arial_MSFontService,sans-serif" font-weight="400" font-size="46" transform="matrix(1 0 0 1 1247.81 381)">0.45</text></g><g><text font-family="Arial,Arial_MSFontService,sans-serif" font-weight="400" font-size="46" transform="matrix(1 0 0 1 1273.3 309)">0.5</text></g><g><text font-family="Arial,Arial_MSFontService,sans-serif" font-weight="400" font-size="46" transform="matrix(1 0 0 1 1377.72 1088)">1</text></g><g><text font-family="Arial,Arial_MSFontService,sans-serif" font-weight="400" font-size="46" transform="matrix(1 0 0 1 1461.79 1088)">4</text></g><g><text font-family="Arial,Arial_MSFontService,sans-serif" font-weight="400" font-size="46" transform="matrix(1 0 0 1 1545.86 1088)">7</text></g><g><text font-family="Arial,Arial_MSFontService,sans-serif" font-weight="400" font-size="46" transform="matrix(1 0 0 1 1617.19 1088)">10</text></g><g><text font-family="Arial,Arial_MSFontService,sans-serif" font-weight="400" font-size="46" transform="matrix(1 0 0 1 1701.26 1088)">13</text></g><g><text font-family="Arial,Arial_MSFontService,sans-serif" font-weight="400" font-size="46" transform="matrix(1 0 0 1 1785.33 1088)">16</text></g><g><text font-family="Arial,Arial_MSFontService,sans-serif" font-weight="400" font-size="46" transform="matrix(1 0 0 1 1869.4 1088)">19</text></g><g><text font-family="Arial,Arial_MSFontService,sans-serif" font-weight="400" font-size="46" transform="matrix(1 0 0 1 1953.48 1088)">22</text></g><g><text font-family="Arial,Arial_MSFontService,sans-serif" font-weight="400" font-size="46" transform="matrix(1 0 0 1 2037.55 1088)">25</text></g><g><text font-family="Arial,Arial_MSFontService,sans-serif" font-weight="400" font-size="46" transform="matrix(1 0 0 1 2121.62 1088)">28</text></g><g><text font-family="Arial,Arial_MSFontService,sans-serif" font-weight="400" font-size="46" transform="matrix(6.12323e-17 -1 1 6.12323e-17 2377.05 763)">MAPE (%)</text></g><g><text font-family="Arial,Arial_MSFontService,sans-serif" font-weight="400" font-size="46" transform="matrix(6.12323e-17 -1 1 6.12323e-17 1224.35 781)">RMSE (KW)</text></g><g><path d="M1452 204 1540 204" stroke="#ED7D31" stroke-width="13.75" stroke-linecap="round" stroke-linejoin="round" stroke-miterlimit="10" fill="none" fill-rule="evenodd"/></g><g><path d="M1508 203.5C1508 210.956 1501.96 217 1494.5 217 1487.04 217 1481 210.956 1481 203.5 1481 196.044 1487.04 190 1494.5 190 1501.96 190 1508 196.044 1508 203.5Z" fill="#ED7D31"/></g><g><text font-family="Arial,Arial_MSFontService,sans-serif" font-weight="400" font-size="46" transform="matrix(1 0 0 1 1548.89 219)">RMSE_HL</text></g><g><path d="M1821 204 1909 204" stroke="#A5A5A5" stroke-width="13.75" stroke-linecap="round" stroke-linejoin="round" stroke-miterlimit="10" fill="none" fill-rule="evenodd"/></g><g><path d="M1878 203.5C1878 210.956 1871.96 217 1864.5 217 1857.04 217 1851 210.956 1851 203.5 1851 196.044 1857.04 190 1864.5 190 1871.96 190 1878 196.044 1878 203.5Z" fill="#A5A5A5"/></g><g><text font-family="Arial,Arial_MSFontService,sans-serif" font-weight="400" font-size="46" transform="matrix(1 0 0 1 1918.72 219)">MAPE_HL</text></g><rect x="1124.5" y="138.5" width="1320" height="989" stroke="#D9D9D9" stroke-width="3.4375" stroke-linejoin="round" stroke-miterlimit="10" fill="none"/></g></svg>