<svg width="1323" height="992" xmlns="http://www.w3.org/2000/svg" xmlns:xlink="http://www.w3.org/1999/xlink" xml:space="preserve" overflow="hidden"><defs><clipPath id="clip0"><rect x="1123" y="137" width="1323" height="992"/></clipPath></defs><g clip-path="url(#clip0)" transform="translate(-1123 -137)"><rect x="1124" y="138" width="1320" height="989" fill="#FFFFFF"/><g><path d="M1376.5 994.533 2140.5 994.533M1376.5 970.532 2140.5 970.532M1376.5 946.531 2140.5 946.531M1376.5 922.53 2140.5 922.53M1376.5 873.529 2140.5 873.529M1376.5 849.528 2140.5 849.528M1376.5 825.527 2140.5 825.527M1376.5 801.526 2140.5 801.526M1376.5 752.525 2140.5 752.525M1376.5 728.524 2140.5 728.524M1376.5 704.523 2140.5 704.523M1376.5 680.522 2140.5 680.522M1376.5 632.521 2140.5 632.521M1376.5 607.52 2140.5 607.52M1376.5 583.519 2140.5 583.519M1376.5 559.519 2140.5 559.519M1376.5 511.517 2140.5 511.517M1376.5 486.516 2140.5 486.516M1376.5 462.515 2140.5 462.515M1376.5 438.515 2140.5 438.515M1376.5 390.513 2140.5 390.513M1376.5 366.512 2140.5 366.512M1376.5 341.511 2140.5 341.511M1376.5 317.511 2140.5 317.511" stroke="#F2F2F2" stroke-width="3.4375" stroke-linejoin="round" stroke-miterlimit="10" fill="none"/></g><g><path d="M1376.5 897.53 2140.5 897.53M1376.5 777.526 2140.5 777.526M1376.5 656.522 2140.5 656.522M1376.5 535.518 2140.5 535.518M1376.5 414.514 2140.5 414.514M1376.5 293.5 2140.5 293.5" stroke="#D9D9D9" stroke-width="3.4375" stroke-linejoin="round" stroke-miterlimit="10" fill="none"/></g><g><path d="M1376.5 1018.5 2140.5 1018.5" stroke="#D9D9D9" stroke-width="3.4375" stroke-linejoin="round" stroke-miterlimit="10" fill="none" fill-rule="evenodd"/></g><g><path d="M1376.5 1018.5 1376.5 1032.5M1401.55 1018.5 1401.55 1032.5M1427.55 1018.5 1427.55 1032.5M1452.55 1018.5 1452.55 1032.5M1478.55 1018.5 1478.55 1032.5M1503.55 1018.5 1503.55 1032.5M1529.55 1018.5 1529.55 1032.5M1554.55 1018.5 1554.55 1032.5M1580.55 1018.5 1580.55 1032.5M1605.55 1018.5 1605.55 1032.5M1631.55 1018.5 1631.55 1032.5M1656.55 1018.5 1656.55 1032.5M1682.56 1018.5 1682.56 1032.5M1707.56 1018.5 1707.56 1032.5M1733.56 1018.5 1733.56 1032.5M1758.56 1018.5 1758.56 1032.5M1783.56 1018.5 1783.56 1032.5M1809.56 1018.5 1809.56 1032.5M1834.56 1018.5 1834.56 1032.5M1860.56 1018.5 1860.56 1032.5M1885.56 1018.5 1885.56 1032.5M1911.56 1018.5 1911.56 1032.5M1936.56 1018.5 1936.56 1032.5M1962.56 1018.5 1962.56 1032.5M1987.57 1018.5 1987.57 1032.5M2013.57 1018.5 2013.57 1032.5M2038.57 1018.5 2038.57 1032.5M2064.57 1018.5 2064.57 1032.5M2089.57 1018.5 2089.57 1032.5M2115.57 1018.5 2115.57 1032.5M2140.5 1018.5 2140.5 1032.5" stroke="#D9D9D9" stroke-width="3.4375" stroke-linejoin="round" stroke-miterlimit="10" fill="none"/></g><g><path d="M1389.5 465.515 1414.55 471.516 1440.55 450.515 1465.55 487.516 1491.55 501.517 1516.55 504.517 1541.55 461.515 1567.55 589.5 1592.55 442.515 1618.55 566.519 1643.55 480.516 1669.55 554.518 1694.56 502.517 1720.56 511.517 1745.56 548.518 1771.56 496.516 1796.56 586.519 1822.56 561.519 1847.56 408.5 1873.56 571.519 1898.56 517.517 1924.56 472.516 1949.56 538.518 1975.56 509.517 2000.57 438.515 2026.57 493.516 2051.57 555.518 2076.57 494.516 2102.57 535.518 2127.5 527.518" stroke="#ED7D31" stroke-width="9.16667" stroke-linecap="round" stroke-linejoin="round" stroke-miterlimit="10" fill="none"/></g><g><path d="M1408.06 465.999C1408.06 476.216 1399.78 484.499 1389.56 484.499 1379.35 484.499 1371.06 476.216 1371.06 465.999 1371.06 455.782 1379.35 447.5 1389.56 447.5 1399.78 447.5 1408.06 455.782 1408.06 465.999Z" fill="#ED7D31"/><path d="M1434.06 473C1434.06 483.217 1425.78 491.499 1415.56 491.499 1405.35 491.499 1397.06 483.217 1397.06 473 1397.06 462.783 1405.35 454.5 1415.56 454.5 1425.78 454.5 1434.06 462.783 1434.06 473Z" fill="#ED7D31"/><path d="M1459.06 452C1459.06 462.217 1450.78 470.499 1440.56 470.499 1430.35 470.499 1422.06 462.217 1422.06 452 1422.06 441.783 1430.35 433.5 1440.56 433.5 1450.78 433.5 1459.06 441.783 1459.06 452Z" fill="#ED7D31"/><path d="M1485.06 488.999C1485.06 499.217 1476.78 507.499 1466.56 507.499 1456.35 507.499 1448.06 499.217 1448.06 488.999 1448.06 478.782 1456.35 470.5 1466.56 470.5 1476.78 470.5 1485.06 478.782 1485.06 488.999Z" fill="#ED7D31"/><path d="M1510.06 502C1510.06 512.217 1501.78 520.499 1491.56 520.499 1481.35 520.499 1473.06 512.217 1473.06 502 1473.06 491.782 1481.35 483.5 1491.56 483.5 1501.78 483.5 1510.06 491.782 1510.06 502Z" fill="#ED7D31"/><path d="M1536.06 506C1536.06 516.217 1527.78 524.499 1517.56 524.499 1507.35 524.499 1499.06 516.217 1499.06 506 1499.06 495.783 1507.35 487.5 1517.56 487.5 1527.78 487.5 1536.06 495.783 1536.06 506Z" fill="#ED7D31"/><path d="M1561.06 463C1561.06 473.217 1552.78 481.499 1542.56 481.499 1532.35 481.499 1524.06 473.217 1524.06 463 1524.06 452.783 1532.35 444.5 1542.56 444.5 1552.78 444.5 1561.06 452.783 1561.06 463Z" fill="#ED7D31"/><path d="M1587.06 591C1587.06 601.217 1578.78 609.499 1568.56 609.499 1558.35 609.499 1550.06 601.217 1550.06 591 1550.06 580.782 1558.35 572.5 1568.56 572.5 1578.78 572.5 1587.06 580.782 1587.06 591Z" fill="#ED7D31"/><path d="M1612.06 443.999C1612.06 454.216 1603.78 462.499 1593.56 462.499 1583.35 462.499 1575.06 454.216 1575.06 443.999 1575.06 433.782 1583.35 425.5 1593.56 425.5 1603.78 425.5 1612.06 433.782 1612.06 443.999Z" fill="#ED7D31"/><path d="M1637.06 568C1637.06 578.217 1628.78 586.499 1618.56 586.499 1608.35 586.499 1600.06 578.217 1600.06 568 1600.06 557.782 1608.35 549.5 1618.56 549.5 1628.78 549.5 1637.06 557.782 1637.06 568Z" fill="#ED7D31"/><path d="M1663.06 481C1663.06 491.217 1654.78 499.499 1644.56 499.499 1634.35 499.499 1626.06 491.217 1626.06 481 1626.06 470.782 1634.35 462.5 1644.56 462.5 1654.78 462.5 1663.06 470.782 1663.06 481Z" fill="#ED7D31"/><path d="M1688.06 555.999C1688.06 566.217 1679.78 574.499 1669.56 574.499 1659.35 574.499 1651.06 566.217 1651.06 555.999 1651.06 545.782 1659.35 537.5 1669.56 537.5 1679.78 537.5 1688.06 545.782 1688.06 555.999Z" fill="#ED7D31"/><path d="M1714.06 504C1714.06 514.217 1705.78 522.499 1695.56 522.499 1685.35 522.499 1677.06 514.217 1677.06 504 1677.06 493.782 1685.35 485.5 1695.56 485.5 1705.78 485.5 1714.06 493.782 1714.06 504Z" fill="#ED7D31"/><path d="M1739.06 511.999C1739.06 522.217 1730.78 530.499 1720.56 530.499 1710.35 530.499 1702.06 522.217 1702.06 511.999 1702.06 501.782 1710.35 493.5 1720.56 493.5 1730.78 493.5 1739.06 501.782 1739.06 511.999Z" fill="#ED7D31"/><path d="M1765.06 550C1765.06 560.217 1756.78 568.499 1746.56 568.499 1736.35 568.499 1728.06 560.217 1728.06 550 1728.06 539.783 1736.35 531.5 1746.56 531.5 1756.78 531.5 1765.06 539.783 1765.06 550Z" fill="#ED7D31"/><path d="M1790.06 497.999C1790.06 508.216 1781.78 516.499 1771.56 516.499 1761.35 516.499 1753.06 508.216 1753.06 497.999 1753.06 487.782 1761.35 479.5 1771.56 479.5 1781.78 479.5 1790.06 487.782 1790.06 497.999Z" fill="#ED7D31"/><path d="M1816.06 586.999C1816.06 597.216 1807.78 605.499 1797.56 605.499 1787.35 605.499 1779.06 597.216 1779.06 586.999 1779.06 576.782 1787.35 568.5 1797.56 568.5 1807.78 568.5 1816.06 576.782 1816.06 586.999Z" fill="#ED7D31"/><path d="M1841.06 562.999C1841.06 573.216 1832.78 581.499 1822.56 581.499 1812.35 581.499 1804.06 573.216 1804.06 562.999 1804.06 552.782 1812.35 544.5 1822.56 544.5 1832.78 544.5 1841.06 552.782 1841.06 562.999Z" fill="#ED7D31"/><path d="M1867.06 409.999C1867.06 420.216 1858.78 428.499 1848.56 428.499 1838.35 428.499 1830.06 420.216 1830.06 409.999 1830.06 399.782 1838.35 391.5 1848.56 391.5 1858.78 391.5 1867.06 399.782 1867.06 409.999Z" fill="#ED7D31"/><path d="M1892.06 572C1892.06 582.217 1883.78 590.499 1873.56 590.499 1863.35 590.499 1855.06 582.217 1855.06 572 1855.06 561.783 1863.35 553.5 1873.56 553.5 1883.78 553.5 1892.06 561.783 1892.06 572Z" fill="#ED7D31"/><path d="M1918.06 518C1918.06 528.217 1909.78 536.499 1899.56 536.499 1889.35 536.499 1881.06 528.217 1881.06 518 1881.06 507.783 1889.35 499.5 1899.56 499.5 1909.78 499.5 1918.06 507.783 1918.06 518Z" fill="#ED7D31"/><path d="M1943.06 473C1943.06 483.217 1934.78 491.499 1924.56 491.499 1914.35 491.499 1906.06 483.217 1906.06 473 1906.06 462.783 1914.35 454.5 1924.56 454.5 1934.78 454.5 1943.06 462.783 1943.06 473Z" fill="#ED7D31"/><path d="M1969.06 540C1969.06 550.217 1960.78 558.499 1950.56 558.499 1940.35 558.499 1932.06 550.217 1932.06 540 1932.06 529.783 1940.35 521.5 1950.56 521.5 1960.78 521.5 1969.06 529.783 1969.06 540Z" fill="#ED7D31"/><path d="M1994.06 509.999C1994.06 520.216 1985.78 528.499 1975.56 528.499 1965.35 528.499 1957.06 520.216 1957.06 509.999 1957.06 499.782 1965.35 491.5 1975.56 491.5 1985.78 491.5 1994.06 499.782 1994.06 509.999Z" fill="#ED7D31"/><path d="M2020.06 440C2020.06 450.217 2011.78 458.499 2001.56 458.499 1991.35 458.499 1983.06 450.217 1983.06 440 1983.06 429.783 1991.35 421.5 2001.56 421.5 2011.78 421.5 2020.06 429.783 2020.06 440Z" fill="#ED7D31"/><path d="M2045.06 494C2045.06 504.217 2036.78 512.499 2026.56 512.499 2016.35 512.499 2008.06 504.217 2008.06 494 2008.06 483.783 2016.35 475.5 2026.56 475.5 2036.78 475.5 2045.06 483.783 2045.06 494Z" fill="#ED7D31"/><path d="M2071.06 555.999C2071.06 566.217 2062.78 574.499 2052.56 574.499 2042.35 574.499 2034.06 566.217 2034.06 555.999 2034.06 545.782 2042.35 537.5 2052.56 537.5 2062.78 537.5 2071.06 545.782 2071.06 555.999Z" fill="#ED7D31"/><path d="M2096.06 496C2096.06 506.217 2087.78 514.499 2077.56 514.499 2067.35 514.499 2059.06 506.217 2059.06 496 2059.06 485.783 2067.35 477.5 2077.56 477.5 2087.78 477.5 2096.06 485.783 2096.06 496Z" fill="#ED7D31"/><path d="M2121.06 537C2121.06 547.217 2112.78 555.499 2102.56 555.499 2092.35 555.499 2084.06 547.217 2084.06 537 2084.06 526.782 2092.35 518.5 2102.56 518.5 2112.78 518.5 2121.06 526.782 2121.06 537Z" fill="#ED7D31"/><path d="M2147.06 528C2147.06 538.217 2138.78 546.499 2128.56 546.499 2118.35 546.499 2110.06 538.217 2110.06 528 2110.06 517.783 2118.35 509.5 2128.56 509.5 2138.78 509.5 2147.06 517.783 2147.06 528Z" fill="#ED7D31"/></g><g><path d="M1389.5 559.519 1414.55 460.515 1440.55 620.521 1465.55 467.516 1491.55 454.515 1516.55 541.518 1541.55 446.515 1567.55 388.513 1592.55 458.515 1618.55 383.513 1643.55 537.518 1669.55 334.5 1694.56 429.514 1720.56 499.517 1745.56 451.515 1771.56 453.515 1796.56 483.516 1822.56 369.512 1847.56 708.5 1873.56 335.511 1898.56 432.514 1924.56 475.516 1949.56 526.517 1975.56 547.518 2000.57 578.519 2026.57 448.515 2051.57 337.511 2076.57 551.518 2102.57 372.512 2127.5 377.513" stroke="#A5A5A5" stroke-width="9.16667" stroke-linecap="round" stroke-linejoin="round" stroke-miterlimit="10" fill="none"/></g><g><path d="M1408.06 561C1408.06 571.217 1399.78 579.499 1389.56 579.499 1379.35 579.499 1371.06 571.217 1371.06 561 1371.06 550.783 1379.35 542.5 1389.56 542.5 1399.78 542.5 1408.06 550.783 1408.06 561Z" fill="#A5A5A5"/><path d="M1434.06 462C1434.06 472.217 1425.78 480.499 1415.56 480.499 1405.35 480.499 1397.06 472.217 1397.06 462 1397.06 451.783 1405.35 443.5 1415.56 443.5 1425.78 443.5 1434.06 451.783 1434.06 462Z" fill="#A5A5A5"/><path d="M1459.06 620.999C1459.06 631.217 1450.78 639.499 1440.56 639.499 1430.35 639.499 1422.06 631.217 1422.06 620.999 1422.06 610.782 1430.35 602.5 1440.56 602.5 1450.78 602.5 1459.06 610.782 1459.06 620.999Z" fill="#A5A5A5"/><path d="M1485.06 467.999C1485.06 478.217 1476.78 486.499 1466.56 486.499 1456.35 486.499 1448.06 478.217 1448.06 467.999 1448.06 457.782 1456.35 449.5 1466.56 449.5 1476.78 449.5 1485.06 457.782 1485.06 467.999Z" fill="#A5A5A5"/><path d="M1510.06 454.999C1510.06 465.216 1501.78 473.499 1491.56 473.499 1481.35 473.499 1473.06 465.216 1473.06 454.999 1473.06 444.782 1481.35 436.5 1491.56 436.5 1501.78 436.5 1510.06 444.782 1510.06 454.999Z" fill="#A5A5A5"/><path d="M1536.06 542.999C1536.06 553.216 1527.78 561.499 1517.56 561.499 1507.35 561.499 1499.06 553.216 1499.06 542.999 1499.06 532.782 1507.35 524.5 1517.56 524.5 1527.78 524.5 1536.06 532.782 1536.06 542.999Z" fill="#A5A5A5"/><path d="M1561.06 448C1561.06 458.217 1552.78 466.499 1542.56 466.499 1532.35 466.499 1524.06 458.217 1524.06 448 1524.06 437.782 1532.35 429.5 1542.56 429.5 1552.78 429.5 1561.06 437.782 1561.06 448Z" fill="#A5A5A5"/><path d="M1587.06 389.999C1587.06 400.217 1578.78 408.499 1568.56 408.499 1558.35 408.499 1550.06 400.217 1550.06 389.999 1550.06 379.782 1558.35 371.5 1568.56 371.5 1578.78 371.5 1587.06 379.782 1587.06 389.999Z" fill="#A5A5A5"/><path d="M1612.06 459C1612.06 469.217 1603.78 477.499 1593.56 477.499 1583.35 477.499 1575.06 469.217 1575.06 459 1575.06 448.782 1583.35 440.5 1593.56 440.5 1603.78 440.5 1612.06 448.782 1612.06 459Z" fill="#A5A5A5"/><path d="M1637.06 384C1637.06 394.217 1628.78 402.499 1618.56 402.499 1608.35 402.499 1600.06 394.217 1600.06 384 1600.06 373.783 1608.35 365.5 1618.56 365.5 1628.78 365.5 1637.06 373.783 1637.06 384Z" fill="#A5A5A5"/><path d="M1663.06 539C1663.06 549.217 1654.78 557.499 1644.56 557.499 1634.35 557.499 1626.06 549.217 1626.06 539 1626.06 528.783 1634.35 520.5 1644.56 520.5 1654.78 520.5 1663.06 528.783 1663.06 539Z" fill="#A5A5A5"/><path d="M1688.06 335.999C1688.06 346.217 1679.78 354.499 1669.56 354.499 1659.35 354.499 1651.06 346.217 1651.06 335.999 1651.06 325.782 1659.35 317.5 1669.56 317.5 1679.78 317.5 1688.06 325.782 1688.06 335.999Z" fill="#A5A5A5"/><path d="M1714.06 430.999C1714.06 441.216 1705.78 449.499 1695.56 449.499 1685.35 449.499 1677.06 441.216 1677.06 430.999 1677.06 420.782 1685.35 412.5 1695.56 412.5 1705.78 412.5 1714.06 420.782 1714.06 430.999Z" fill="#A5A5A5"/><path d="M1739.06 500.999C1739.06 511.217 1730.78 519.499 1720.56 519.499 1710.35 519.499 1702.06 511.217 1702.06 500.999 1702.06 490.782 1710.35 482.5 1720.56 482.5 1730.78 482.5 1739.06 490.782 1739.06 500.999Z" fill="#A5A5A5"/><path d="M1765.06 452C1765.06 462.217 1756.78 470.499 1746.56 470.499 1736.35 470.499 1728.06 462.217 1728.06 452 1728.06 441.783 1736.35 433.5 1746.56 433.5 1756.78 433.5 1765.06 441.783 1765.06 452Z" fill="#A5A5A5"/><path d="M1790.06 454.999C1790.06 465.216 1781.78 473.499 1771.56 473.499 1761.35 473.499 1753.06 465.216 1753.06 454.999 1753.06 444.782 1761.35 436.5 1771.56 436.5 1781.78 436.5 1790.06 444.782 1790.06 454.999Z" fill="#A5A5A5"/><path d="M1816.06 484C1816.06 494.217 1807.78 502.499 1797.56 502.499 1787.35 502.499 1779.06 494.217 1779.06 484 1779.06 473.783 1787.35 465.5 1797.56 465.5 1807.78 465.5 1816.06 473.783 1816.06 484Z" fill="#A5A5A5"/><path d="M1841.06 371C1841.06 381.217 1832.78 389.499 1822.56 389.499 1812.35 389.499 1804.06 381.217 1804.06 371 1804.06 360.782 1812.35 352.5 1822.56 352.5 1832.78 352.5 1841.06 360.782 1841.06 371Z" fill="#A5A5A5"/><path d="M1867.06 709.999C1867.06 720.217 1858.78 728.499 1848.56 728.499 1838.35 728.499 1830.06 720.217 1830.06 709.999 1830.06 699.782 1838.35 691.5 1848.56 691.5 1858.78 691.5 1867.06 699.782 1867.06 709.999Z" fill="#A5A5A5"/><path d="M1892.06 337C1892.06 347.217 1883.78 355.499 1873.56 355.499 1863.35 355.499 1855.06 347.217 1855.06 337 1855.06 326.782 1863.35 318.5 1873.56 318.5 1883.78 318.5 1892.06 326.782 1892.06 337Z" fill="#A5A5A5"/><path d="M1918.06 433.999C1918.06 444.217 1909.78 452.499 1899.56 452.499 1889.35 452.499 1881.06 444.217 1881.06 433.999 1881.06 423.782 1889.35 415.5 1899.56 415.5 1909.78 415.5 1918.06 423.782 1918.06 433.999Z" fill="#A5A5A5"/><path d="M1943.06 476.999C1943.06 487.216 1934.78 495.499 1924.56 495.499 1914.35 495.499 1906.06 487.216 1906.06 476.999 1906.06 466.782 1914.35 458.5 1924.56 458.5 1934.78 458.5 1943.06 466.782 1943.06 476.999Z" fill="#A5A5A5"/><path d="M1969.06 527C1969.06 537.217 1960.78 545.499 1950.56 545.499 1940.35 545.499 1932.06 537.217 1932.06 527 1932.06 516.783 1940.35 508.5 1950.56 508.5 1960.78 508.5 1969.06 516.783 1969.06 527Z" fill="#A5A5A5"/><path d="M1994.06 548C1994.06 558.217 1985.78 566.499 1975.56 566.499 1965.35 566.499 1957.06 558.217 1957.06 548 1957.06 537.782 1965.35 529.5 1975.56 529.5 1985.78 529.5 1994.06 537.782 1994.06 548Z" fill="#A5A5A5"/><path d="M2020.06 579C2020.06 589.217 2011.78 597.499 2001.56 597.499 1991.35 597.499 1983.06 589.217 1983.06 579 1983.06 568.782 1991.35 560.5 2001.56 560.5 2011.78 560.5 2020.06 568.782 2020.06 579Z" fill="#A5A5A5"/><path d="M2045.06 449C2045.06 459.217 2036.78 467.499 2026.56 467.499 2016.35 467.499 2008.06 459.217 2008.06 449 2008.06 438.782 2016.35 430.5 2026.56 430.5 2036.78 430.5 2045.06 438.782 2045.06 449Z" fill="#A5A5A5"/><path d="M2071.06 338C2071.06 348.217 2062.78 356.499 2052.56 356.499 2042.35 356.499 2034.06 348.217 2034.06 338 2034.06 327.782 2042.35 319.5 2052.56 319.5 2062.78 319.5 2071.06 327.782 2071.06 338Z" fill="#A5A5A5"/><path d="M2096.06 552.999C2096.06 563.216 2087.78 571.499 2077.56 571.499 2067.35 571.499 2059.06 563.216 2059.06 552.999 2059.06 542.782 2067.35 534.5 2077.56 534.5 2087.78 534.5 2096.06 542.782 2096.06 552.999Z" fill="#A5A5A5"/><path d="M2121.06 373C2121.06 383.217 2112.78 391.499 2102.56 391.499 2092.35 391.499 2084.06 383.217 2084.06 373 2084.06 362.783 2092.35 354.5 2102.56 354.5 2112.78 354.5 2121.06 362.783 2121.06 373Z" fill="#A5A5A5"/><path d="M2147.06 377.999C2147.06 388.216 2138.78 396.499 2128.56 396.499 2118.35 396.499 2110.06 388.216 2110.06 377.999 2110.06 367.782 2118.35 359.5 2128.56 359.5 2138.78 359.5 2147.06 367.782 2147.06 377.999Z" fill="#A5A5A5"/></g><g><text font-family="Arial,Arial_MSFontService,sans-serif" font-weight="400" font-size="46" transform="matrix(1 0 0 1 2180.15 1034)">0.997</text></g><g><text font-family="Arial,Arial_MSFontService,sans-serif" font-weight="400" font-size="46" transform="matrix(1 0 0 1 2180.15 889)">0.9975</text></g><g><text font-family="Arial,Arial_MSFontService,sans-serif" font-weight="400" font-size="46" transform="matrix(1 0 0 1 2180.15 744)">0.998</text></g><g><text font-family="Arial,Arial_MSFontService,sans-serif" font-weight="400" font-size="46" transform="matrix(1 0 0 1 2180.15 599)">0.9985</text></g><g><text font-family="Arial,Arial_MSFontService,sans-serif" font-weight="400" font-size="46" transform="matrix(1 0 0 1 2180.15 454)">0.999</text></g><g><text font-family="Arial,Arial_MSFontService,sans-serif" font-weight="400" font-size="46" transform="matrix(1 0 0 1 2180.15 309)">0.9995</text></g><g><text font-family="Arial,Arial_MSFontService,sans-serif" font-weight="400" font-size="46" transform="matrix(1 0 0 1 1311.52 1034)">0</text></g><g><text font-family="Arial,Arial_MSFontService,sans-serif" font-weight="400" font-size="46" transform="matrix(1 0 0 1 1247.81 913)">0.05</text></g><g><text font-family="Arial,Arial_MSFontService,sans-serif" font-weight="400" font-size="46" transform="matrix(1 0 0 1 1273.3 792)">0.1</text></g><g><text font-family="Arial,Arial_MSFontService,sans-serif" font-weight="400" font-size="46" transform="matrix(1 0 0 1 1247.81 671)">0.15</text></g><g><text font-family="Arial,Arial_MSFontService,sans-serif" font-weight="400" font-size="46" transform="matrix(1 0 0 1 1273.3 550)">0.2</text></g><g><text font-family="Arial,Arial_MSFontService,sans-serif" font-weight="400" font-size="46" transform="matrix(1 0 0 1 1247.81 430)">0.25</text></g><g><text font-family="Arial,Arial_MSFontService,sans-serif" font-weight="400" font-size="46" transform="matrix(1 0 0 1 1273.3 309)">0.3</text></g><g><text font-family="Arial,Arial_MSFontService,sans-serif" font-weight="400" font-size="46" transform="matrix(1 0 0 1 1376.44 1088)">1</text></g><g><text font-family="Arial,Arial_MSFontService,sans-serif" font-weight="400" font-size="46" transform="matrix(1 0 0 1 1452.87 1088)">4</text></g><g><text font-family="Arial,Arial_MSFontService,sans-serif" font-weight="400" font-size="46" transform="matrix(1 0 0 1 1529.3 1088)">7</text></g><g><text font-family="Arial,Arial_MSFontService,sans-serif" font-weight="400" font-size="46" transform="matrix(1 0 0 1 1592.98 1088)">10</text></g><g><text font-family="Arial,Arial_MSFontService,sans-serif" font-weight="400" font-size="46" transform="matrix(1 0 0 1 1669.41 1088)">13</text></g><g><text font-family="Arial,Arial_MSFontService,sans-serif" font-weight="400" font-size="46" transform="matrix(1 0 0 1 1745.83 1088)">16</text></g><g><text font-family="Arial,Arial_MSFontService,sans-serif" font-weight="400" font-size="46" transform="matrix(1 0 0 1 1822.26 1088)">19</text></g><g><text font-family="Arial,Arial_MSFontService,sans-serif" font-weight="400" font-size="46" transform="matrix(1 0 0 1 1898.69 1088)">22</text></g><g><text font-family="Arial,Arial_MSFontService,sans-serif" font-weight="400" font-size="46" transform="matrix(1 0 0 1 1975.11 1088)">25</text></g><g><text font-family="Arial,Arial_MSFontService,sans-serif" font-weight="400" font-size="46" transform="matrix(1 0 0 1 2051.54 1088)">28</text></g><g><text font-family="Arial,Arial_MSFontService,sans-serif" font-weight="400" font-size="46" transform="matrix(6.12323e-17 -1 1 6.12323e-17 2377.05 794)">R</text></g><g><text font-family="Arial,Arial_MSFontService,sans-serif" font-weight="400" font-size="46" transform="matrix(6.12323e-17 -1 1 6.12323e-17 2377.05 761)">-</text></g><g><text font-family="Arial,Arial_MSFontService,sans-serif" font-weight="400" font-size="46" transform="matrix(6.12323e-17 -1 1 6.12323e-17 2377.05 745)">SQUARED</text></g><g><text font-family="Arial,Arial_MSFontService,sans-serif" font-weight="400" font-size="46" transform="matrix(6.12323e-17 -1 1 6.12323e-17 1224.35 764)">MAE (KW)</text></g><g><path d="M1507.5 204.5 1595.5 204.5" stroke="#ED7D31" stroke-width="9.16667" stroke-linecap="round" stroke-linejoin="round" stroke-miterlimit="10" fill="none" fill-rule="evenodd"/></g><g><path d="M1564 203.5C1564 210.956 1557.96 217 1550.5 217 1543.04 217 1537 210.956 1537 203.5 1537 196.044 1543.04 190 1550.5 190 1557.96 190 1564 196.044 1564 203.5Z" fill="#ED7D31"/></g><g><text font-family="Arial,Arial_MSFontService,sans-serif" font-weight="400" font-size="46" transform="matrix(1 0 0 1 1604.57 219)">MAE_HL</text></g><g><path d="M1837.5 204.5 1925.5 204.5" stroke="#A5A5A5" stroke-width="9.16667" stroke-linecap="round" stroke-linejoin="round" stroke-miterlimit="10" fill="none" fill-rule="evenodd"/></g><g><path d="M1894 203.5C1894 210.956 1887.96 217 1880.5 217 1873.04 217 1867 210.956 1867 203.5 1867 196.044 1873.04 190 1880.5 190 1887.96 190 1894 196.044 1894 203.5Z" fill="#A5A5A5"/></g><g><text font-family="Arial,Arial_MSFontService,sans-serif" font-weight="400" font-size="46" transform="matrix(1 0 0 1 1934.35 219)">R2_HL</text></g><rect x="1124.5" y="138.5" width="1320" height="989" stroke="#D9D9D9" stroke-width="3.4375" stroke-linejoin="round" stroke-miterlimit="10" fill="none"/></g></svg>